<svg width="22" height="22" viewBox="0 0 22 22" fill="none" xmlns="http://www.w3.org/2000/svg">
<path fill-rule="evenodd" clip-rule="evenodd" d="M10.9999 1.83331C16.0625 1.83331 20.1666 5.93737 20.1666 11C20.1666 16.0626 16.0625 20.1666 10.9999 20.1666C5.93731 20.1666 1.83325 16.0626 1.83325 11C1.83325 5.93737 5.93731 1.83331 10.9999 1.83331ZM10.9999 3.66665C6.94984 3.66665 3.66659 6.9499 3.66659 11C3.66659 15.0501 6.94984 18.3333 10.9999 18.3333C15.05 18.3333 18.3333 15.0501 18.3333 11C18.3333 6.9499 15.05 3.66665 10.9999 3.66665ZM6.68541 6.68546C7.01625 6.35462 7.53533 6.32917 7.89514 6.60912L7.98157 6.68546L11.0002 9.70405L14.0187 6.68546C14.3772 6.32705 14.9565 6.32705 15.3149 6.68546C15.6458 7.01631 15.6712 7.53539 15.3913 7.8952L15.3149 7.98163L12.2963 11.0002L15.3149 14.0188C15.6733 14.3772 15.6733 14.9565 15.3149 15.315C15.1362 15.4937 14.9015 15.5835 14.6668 15.5835C14.4713 15.5835 14.2757 15.5212 14.1125 15.3969L14.0187 15.315L11.0002 12.2964L7.98157 15.315C7.80282 15.4937 7.56816 15.5835 7.33349 15.5835C7.09882 15.5835 6.86416 15.4937 6.68541 15.315C6.35456 14.9841 6.32911 14.465 6.60906 14.1052L6.68541 14.0188L9.70399 11.0002L6.68541 7.98163C6.32699 7.62321 6.32699 7.04388 6.68541 6.68546Z" fill="#D22D25"/>
</svg>
