<svg width="20" height="20" viewBox="0 0 20 20" fill="none" xmlns="http://www.w3.org/2000/svg">
<path fill-rule="evenodd" clip-rule="evenodd" d="M10.0001 1.66669C14.6025 1.66669 18.3334 5.39765 18.3334 10C18.3334 14.6024 14.6025 18.3334 10.0001 18.3334C5.39771 18.3334 1.66675 14.6024 1.66675 10C1.66675 5.39765 5.39771 1.66669 10.0001 1.66669ZM10.0001 3.33336C6.3182 3.33336 3.33343 6.31813 3.33343 10C3.33343 13.6819 6.3182 16.6667 10.0001 16.6667C13.682 16.6667 16.6668 13.6819 16.6668 10C16.6668 6.31813 13.682 3.33336 10.0001 3.33336ZM6.0778 6.07774C6.37857 5.77697 6.85047 5.75383 7.17756 6.00833L7.25614 6.07774L10.0003 8.8219L12.7445 6.07774C13.0703 5.7519 13.597 5.7519 13.9228 6.07774C14.2236 6.37851 14.2467 6.8504 13.9922 7.17749L13.9228 7.25607L11.1786 10.0002L13.9228 12.7444C14.2486 13.0702 14.2486 13.5969 13.9228 13.9227C13.7603 14.0852 13.547 14.1669 13.3336 14.1669C13.1559 14.1669 12.9781 14.1102 12.8297 13.9972L12.7445 13.9227L10.0003 11.1786L7.25614 13.9227C7.09364 14.0852 6.8803 14.1669 6.66697 14.1669C6.45364 14.1669 6.2403 14.0852 6.0778 13.9227C5.77704 13.622 5.7539 13.1501 6.0084 12.823L6.0778 12.7444L8.82197 10.0002L6.0778 7.25607C5.75197 6.93024 5.75197 6.40357 6.0778 6.07774Z" fill="#D22D25"/>
</svg>
