<svg width="16" height="16" viewBox="0 0 16 16" fill="none" xmlns="http://www.w3.org/2000/svg">
<path fill-rule="evenodd" clip-rule="evenodd" d="M7.99992 1.33331C11.6818 1.33331 14.6666 4.31808 14.6666 7.99998C14.6666 11.6819 11.6818 14.6666 7.99992 14.6666C4.31802 14.6666 1.33325 11.6819 1.33325 7.99998C1.33325 4.31808 4.31802 1.33331 7.99992 1.33331ZM7.99992 2.66665C5.0544 2.66665 2.66658 5.05446 2.66658 7.99998C2.66658 10.9455 5.0544 13.3333 7.99992 13.3333C10.9454 13.3333 13.3333 10.9455 13.3333 7.99998C13.3333 5.05446 10.9454 2.66665 7.99992 2.66665ZM4.86208 4.86215C5.1027 4.62153 5.48021 4.60303 5.74189 4.80662L5.80475 4.86215L8.00008 7.05748L10.1954 4.86215C10.4561 4.60148 10.8774 4.60148 11.1381 4.86215C11.3787 5.10276 11.3972 5.48028 11.1936 5.74196L11.1381 5.80482L8.94275 8.00015L11.1381 10.1955C11.3988 10.4561 11.3988 10.8775 11.1381 11.1381C11.0081 11.2681 10.8374 11.3335 10.6668 11.3335C10.5245 11.3335 10.3823 11.2881 10.2636 11.1978L10.1954 11.1381L8.00008 8.94282L5.80475 11.1381C5.67475 11.2681 5.50408 11.3335 5.33342 11.3335C5.16275 11.3335 4.99208 11.2681 4.86208 11.1381C4.62147 10.8975 4.60296 10.52 4.80656 10.2583L4.86208 10.1955L7.05742 8.00015L4.86208 5.80482C4.60142 5.54415 4.60142 5.12282 4.86208 4.86215Z" fill="#D22D25"/>
</svg>
