<svg width="38" height="16" viewBox="0 0 38 16" fill="none" xmlns="http://www.w3.org/2000/svg">
<path fill-rule="evenodd" clip-rule="evenodd" d="M12.8541 0.479844C13.1415 0.951485 12.9921 1.56677 12.5204 1.85413L4.56396 6.70173L37.0001 6.70173C37.5524 6.70173 38.0001 7.14945 38.0001 7.70173C38.0001 8.25402 37.5524 8.70173 37.0001 8.70173L4.31664 8.70173L12.553 14.1667C13.0132 14.4721 13.1387 15.0927 12.8334 15.5529C12.528 16.0131 11.9074 16.1386 11.4472 15.8333L0.482015 8.55759C0.348918 8.47714 0.232677 8.36435 0.146162 8.22235C0.0461924 8.05827 -0.000916681 7.8768 1.3504e-05 7.6978C0.000491158 7.50874 0.0545094 7.3177 0.166861 7.14837C0.259 7.00951 0.379843 6.90112 0.516322 6.82584L11.4798 0.146162C11.9515 -0.141193 12.5668 0.00820193 12.8541 0.479844Z" fill="black"/>
</svg>
