<svg width="48" height="48" viewBox="0 0 48 48" fill="none" xmlns="http://www.w3.org/2000/svg">
<path d="M24 48C37.2149 48 48 37.2141 48 24C48 10.7851 37.2141 0 24 0C10.7851 0 0 10.7859 0 24C0 37.2149 10.7859 48 24 48ZM24 2.8125C35.6828 2.8125 45.1875 12.3172 45.1875 24C45.1875 35.6828 35.6828 45.1875 24 45.1875C12.3172 45.1875 2.8125 35.6828 2.8125 24C2.8125 12.3172 12.3172 2.8125 24 2.8125Z" fill="url(#paint0_linear)"/>
<path d="M24 42.375C34.1588 42.375 42.375 34.0279 42.375 24C42.375 13.9449 34.1503 5.625 24 5.625C13.945 5.625 5.625 13.8496 5.625 24C5.625 34.0551 13.8497 42.375 24 42.375ZM9.84375 22.5938H8.50172C8.793 19.357 10.079 16.4029 12.0517 14.0404L12.9683 14.957C13.5173 15.5062 14.4078 15.5063 14.957 14.957C15.5062 14.4078 15.5062 13.5174 14.957 12.9683L14.0404 12.0517C16.403 10.079 19.357 8.79309 22.5938 8.50172V9.84375C22.5938 10.6204 23.2234 11.25 24 11.25C24.7766 11.25 25.4062 10.6204 25.4062 9.84375V8.50172C28.643 8.793 31.5971 10.079 33.9596 12.0517L33.043 12.9683C32.4938 13.5174 32.4938 14.4078 33.043 14.957C33.5921 15.5062 34.4826 15.5063 35.0317 14.957L35.9483 14.0404C37.9209 16.403 39.2069 19.357 39.4983 22.5938H38.1562C37.3796 22.5938 36.75 23.2234 36.75 24C36.75 24.7766 37.3796 25.4053 38.1562 25.4053H39.4983C39.207 28.642 37.921 31.5971 35.9483 33.9596L35.0317 33.043C34.4827 32.4938 33.5922 32.4938 33.043 33.043C32.4938 33.5922 32.4938 34.4826 33.043 35.0317L33.9596 35.9483C31.597 37.921 28.643 39.2069 25.4062 39.4983V38.1562C25.4062 37.3796 24.7766 36.75 24 36.75C23.2234 36.75 22.5938 37.3796 22.5938 38.1562V39.4983C19.357 39.207 16.4029 37.921 14.0404 35.9483L14.957 35.0317C15.5062 34.4826 15.5062 33.5922 14.957 33.043C14.4079 32.4938 13.5174 32.4938 12.9683 33.043L12.0517 33.9596C10.079 31.5971 8.793 28.643 8.50172 25.4062H9.84375C10.6204 25.4062 11.25 24.7766 11.25 24C11.25 23.2234 10.6204 22.5938 9.84375 22.5938Z" fill="url(#paint1_linear)"/>
<path d="M28.6307 30.6193C29.1798 31.1685 30.0702 31.1686 30.6194 30.6193C31.1686 30.0701 31.1686 29.1798 30.6194 28.6306L25.4063 23.4175V15.4687C25.4063 14.6921 24.7766 14.0625 24 14.0625C23.2234 14.0625 22.5938 14.6921 22.5938 15.4687V24C22.5938 24.3729 22.742 24.7306 23.0057 24.9943L28.6307 30.6193Z" fill="url(#paint2_linear)"/>
<defs>
<linearGradient id="paint0_linear" x1="-3.57628e-07" y1="24" x2="48" y2="24" gradientUnits="userSpaceOnUse">
<stop stop-color="#FFD003"/>
<stop offset="1" stop-color="#F49C19"/>
</linearGradient>
<linearGradient id="paint1_linear" x1="5.625" y1="24" x2="42.375" y2="24" gradientUnits="userSpaceOnUse">
<stop stop-color="#FFD003"/>
<stop offset="1" stop-color="#F49C19"/>
</linearGradient>
<linearGradient id="paint2_linear" x1="22.5937" y1="22.5469" x2="31.0313" y2="22.5469" gradientUnits="userSpaceOnUse">
<stop stop-color="#FFD003"/>
<stop offset="1" stop-color="#F49C19"/>
</linearGradient>
</defs>
</svg>
