<svg width="27" height="26" viewBox="0 0 27 26" fill="none" xmlns="http://www.w3.org/2000/svg">
<path fill-rule="evenodd" clip-rule="evenodd" d="M1.70744 1.29289C2.09797 0.902367 2.73113 0.902367 3.12166 1.29289L25.7074 23.8787C26.098 24.2692 26.098 24.9024 25.7074 25.2929C25.3169 25.6834 24.6838 25.6834 24.2932 25.2929L1.70744 2.70711C1.31692 2.31658 1.31692 1.68342 1.70744 1.29289Z" fill="black"/>
<path fill-rule="evenodd" clip-rule="evenodd" d="M1.29304 25.2929C0.90252 24.9024 0.90252 24.2692 1.29304 23.8787L23.8788 1.29289C24.2694 0.902369 24.9025 0.902369 25.293 1.29289C25.6836 1.68342 25.6836 2.31658 25.293 2.70711L2.70726 25.2929C2.31673 25.6834 1.68357 25.6834 1.29304 25.2929Z" fill="black"/>
</svg>
