<svg width="64" height="64" viewBox="0 0 64 64" fill="none" xmlns="http://www.w3.org/2000/svg">
<g clip-path="url(#clip0)">
<path d="M48.2046 17.144C51.7339 18.5063 51.9399 23.4243 48.5366 25.0757C48.5205 25.083 47.396 25.54 47.1885 26.0781C47.0351 26.4756 47.0229 26.5078 47.4932 27.6773C48.1484 29.3047 49.2441 32.0283 47.8437 35.6577C46.4429 39.2866 43.8013 40.5674 42.2226 41.333C41.0884 41.8828 41.0762 41.9156 40.9228 42.3125C40.7695 42.7095 40.7568 42.7417 41.2275 43.9112C41.8823 45.5386 42.979 48.2622 41.5781 51.8912C40.624 54.3633 38.4385 56.3189 36.7109 57.3541C34.6977 58.5611 32.4448 57.6915 32.4448 57.6915C28.9155 56.3291 28.7094 51.4112 32.1132 49.7603C32.1294 49.7525 33.2412 49.3277 33.4609 48.7583C33.6142 48.3614 33.6264 48.3286 33.1557 47.1597C32.5009 45.5323 31.4048 42.8086 32.8056 39.1792C34.206 35.5503 36.8476 34.2691 38.4262 33.5039C39.5605 32.9541 39.5732 32.9214 39.7265 32.5244C39.8794 32.1275 39.8921 32.0952 39.4214 30.9253C38.7666 29.2979 37.6704 26.5742 39.0713 22.9453C40.0576 20.3892 42.269 18.5098 43.9477 17.4424C45.9902 16.1435 48.2046 17.144 48.2046 17.144Z" fill="white"/>
<path d="M13.5117 30.5791C13.3584 30.9761 12.1806 31.5738 12.165 31.5816C8.88962 33.1705 9.08737 37.9034 12.4844 39.2144C12.4844 39.2144 14.9155 40.1529 16.7451 39.0416C18.4336 38.0157 20.6885 36.149 21.6289 33.7125C23.0298 30.0831 21.9336 27.3594 21.2788 25.732C20.8081 24.5625 20.8208 24.5303 20.9741 24.1328C21.1816 23.5952 22.3057 23.1382 22.3218 23.1304C25.7256 21.479 25.5195 16.5611 21.9897 15.1988C21.9897 15.1988 19.7759 14.1983 17.7334 15.4971C16.0542 16.565 13.8432 18.4444 12.8564 21C11.456 24.6294 12.5517 27.3531 13.207 28.9805C13.6772 30.1499 13.665 30.1822 13.5117 30.5791Z" fill="#00EAD9"/>
<path d="M52.5551 44.6959L47.3954 48.2823C46.3798 48.9888 46.5473 50.5391 47.6909 51.0123L53.1308 53.2603C54.1499 53.6817 55.2631 52.9078 55.2236 51.8057L55.0107 45.9234C54.9658 44.6866 53.5708 43.9893 52.5551 44.6959Z" fill="#FFD003"/>
<path d="M17.1874 54.0811L12.5063 49.8892C11.5844 49.064 10.1142 49.585 9.91887 50.8071L8.98722 56.6187C8.81242 57.708 9.82267 58.6123 10.8862 58.3193L16.56 56.7539C17.7529 56.4248 18.1093 54.9062 17.1874 54.0811Z" fill="#3AB8BC"/>
<path d="M37.0004 5.47653L30.7265 5.82272C29.4912 5.89108 28.8203 7.29928 29.5458 8.30172L32.9965 13.0698C33.6435 13.9634 34.9975 13.8886 35.542 12.9292L38.4472 7.81051C39.0576 6.73434 38.2363 5.40817 37.0004 5.47653Z" fill="#006666"/>
<path d="M63.5835 33.269L61.3144 35.5381C60.5928 36.2598 59.4224 36.2598 58.7007 35.5381L56.4311 33.269C55.7095 32.5469 55.7095 31.3769 56.4311 30.6548L58.7007 28.3857C59.4224 27.664 60.5928 27.664 61.3144 28.3857L63.5835 30.6548C64.3057 31.3769 64.3057 32.5474 63.5835 33.269Z" fill="#006666"/>
<path d="M7.81872 21.1093L5.54968 23.3784C4.82751 24.1 3.65759 24.1 2.93542 23.3784L0.66637 21.1093C-0.0553109 20.3871 -0.0553108 19.2167 0.66637 18.495L2.93542 16.226C3.65759 15.5038 4.82751 15.5038 5.54968 16.226L7.81873 18.495C8.54041 19.2167 8.54041 20.3871 7.81872 21.1093Z" fill="#3AB8BC"/>
<path d="M28.5483 28.2685C28.5483 26.5605 29.9326 25.1763 31.6406 25.1763C33.3486 25.1763 34.7329 26.5605 34.7329 28.2686C34.7329 29.9761 33.3486 31.3608 31.6406 31.3608C29.9326 31.3608 28.5483 29.9761 28.5483 28.2685Z" fill="#FFD003"/>
<path d="M21.2246 44.652C21.2246 43.1984 22.4028 42.0201 23.8564 42.0201C25.3101 42.0201 26.4883 43.1984 26.4883 44.652C26.4883 46.1051 25.3101 47.2838 23.8564 47.2838C22.4028 47.2838 21.2246 46.1051 21.2246 44.652Z" fill="#10A376"/>
</g>
<defs>
<clipPath id="clip0">
<rect width="64" height="64" fill="white" transform="translate(64 64) rotate(-180)"/>
</clipPath>
</defs>
</svg>
