<svg width="64" height="64" viewBox="0 0 64 64" fill="none" xmlns="http://www.w3.org/2000/svg">
<g clip-path="url(#clip0)">
<path d="M15.7954 46.856C12.2661 45.4937 12.0601 40.5757 15.4634 38.9243C15.4795 38.917 16.604 38.46 16.8115 37.9219C16.9649 37.5244 16.9771 37.4922 16.5068 36.3227C15.8516 34.6953 14.7559 31.9717 16.1563 28.3423C17.5571 24.7134 20.1987 23.4326 21.7774 22.667C22.9116 22.1172 22.9238 22.0844 23.0772 21.6875C23.2305 21.2905 23.2432 21.2583 22.7725 20.0888C22.1177 18.4614 21.021 15.7378 22.4219 12.1088C23.376 9.63667 25.5615 7.6811 27.2891 6.64594C29.3023 5.43891 31.5552 6.30854 31.5552 6.30854C35.0845 7.67085 35.2906 12.5888 31.8868 14.2397C31.8706 14.2475 30.7588 14.6723 30.5391 15.2417C30.3858 15.6386 30.3736 15.6713 30.8443 16.8403C31.4991 18.4677 32.5953 21.1914 31.1944 24.8208C29.794 28.4497 27.1524 29.7309 25.5738 30.4961C24.4395 31.0459 24.4268 31.0786 24.2735 31.4756C24.1206 31.8725 24.1079 31.9048 24.5786 33.0747C25.2334 34.7021 26.3296 37.4258 24.9287 41.0547C23.9424 43.6108 21.731 45.4902 20.0523 46.5576C18.0098 47.8565 15.7954 46.856 15.7954 46.856Z" fill="white"/>
<path d="M50.4883 33.4209C50.6416 33.0239 51.8194 32.4262 51.835 32.4184C55.1104 30.8295 54.9126 26.0966 51.5156 24.7856C51.5156 24.7856 49.0845 23.8471 47.2549 24.9584C45.5664 25.9843 43.3115 27.851 42.3711 30.2875C40.9702 33.9169 42.0664 36.6406 42.7212 38.268C43.1919 39.4375 43.1792 39.4697 43.0259 39.8672C42.8184 40.4048 41.6943 40.8618 41.6782 40.8696C38.2744 42.521 38.4805 47.4389 42.0103 48.8012C42.0103 48.8012 44.2241 49.8017 46.2666 48.5029C47.9458 47.435 50.1568 45.5556 51.1436 43C52.544 39.3706 51.4483 36.6469 50.793 35.0195C50.3228 33.8501 50.335 33.8178 50.4883 33.4209Z" fill="#00EAD9"/>
<path d="M11.4449 19.3041L16.6046 15.7177C17.6202 15.0112 17.4527 13.4609 16.3091 12.9877L10.8692 10.7397C9.85015 10.3183 8.73686 11.0922 8.77641 12.1943L8.98931 18.0766C9.03423 19.3134 10.4292 20.0107 11.4449 19.3041Z" fill="#FFD003"/>
<path d="M46.8126 9.91895L51.4937 14.1108C52.4156 14.936 53.8858 14.415 54.0811 13.1929L55.0128 7.38135C55.1876 6.29199 54.1773 5.38769 53.1138 5.68066L47.44 7.24609C46.2471 7.57519 45.8907 9.09375 46.8126 9.91895Z" fill="#3AB8BC"/>
<path d="M26.9996 58.5235L33.2735 58.1773C34.5088 58.1089 35.1797 56.7007 34.4542 55.6983L31.0035 50.9302C30.3565 50.0366 29.0025 50.1114 28.458 51.0708L25.5528 56.1895C24.9424 57.2657 25.7637 58.5918 26.9996 58.5235Z" fill="#006666"/>
<path d="M0.416505 30.731L2.68555 28.4619C3.40723 27.7402 4.57764 27.7402 5.29932 28.4619L7.56886 30.731C8.29054 31.4531 8.29054 32.6231 7.56886 33.3452L5.29932 35.6143C4.57764 36.336 3.40723 36.336 2.68555 35.6143L0.416505 33.3452C-0.305664 32.6231 -0.305664 31.4526 0.416505 30.731Z" fill="#006666"/>
<path d="M56.1813 42.8907L58.4503 40.6216C59.1725 39.9 60.3424 39.9 61.0646 40.6216L63.3336 42.8907C64.0553 43.6129 64.0553 44.7833 63.3336 45.505L61.0646 47.774C60.3424 48.4962 59.1725 48.4962 58.4503 47.774L56.1813 45.505C55.4596 44.7833 55.4596 43.6129 56.1813 42.8907Z" fill="#3AB8BC"/>
<path d="M35.4517 35.7314C35.4517 37.4395 34.0674 38.8237 32.3594 38.8237C30.6514 38.8237 29.2671 37.4395 29.2671 35.7314C29.2671 34.0239 30.6514 32.6392 32.3594 32.6392C34.0674 32.6392 35.4517 34.0239 35.4517 35.7314Z" fill="#FFD003"/>
<path d="M42.7754 19.348C42.7754 20.8016 41.5972 21.9799 40.1436 21.9799C38.6899 21.9799 37.5117 20.8016 37.5117 19.348C37.5117 17.8949 38.6899 16.7162 40.1436 16.7162C41.5972 16.7162 42.7754 17.8949 42.7754 19.348Z" fill="#10A376"/>
</g>
<defs>
<clipPath id="clip0">
<rect width="64" height="64" fill="white"/>
</clipPath>
</defs>
</svg>
