<svg width="64" height="64" viewBox="0 0 64 64" fill="none" xmlns="http://www.w3.org/2000/svg">
<path d="M32.0092 64C49.5668 64 63.8 49.7667 63.8 32.2091C63.8 14.6515 49.5668 0.418213 32.0092 0.418213C14.4515 0.418213 0.218262 14.6515 0.218262 32.2091C0.218262 49.7667 14.4515 64 32.0092 64Z" fill="#00EAD9"/>
<path d="M32.0092 60.939C47.8763 60.939 60.7392 48.0761 60.7392 32.209C60.7392 16.3419 47.8763 3.479 32.0092 3.479C16.142 3.479 3.27917 16.3419 3.27917 32.209C3.27917 48.0761 16.142 60.939 32.0092 60.939Z" fill="url(#paint0_linear)"/>
<path d="M32.3909 56.6356C46.1223 56.6356 57.2539 45.5041 57.2539 31.7726C57.2539 18.0412 46.1223 6.90967 32.3909 6.90967C18.6595 6.90967 7.52795 18.0412 7.52795 31.7726C7.52795 45.5041 18.6595 56.6356 32.3909 56.6356Z" fill="#006262"/>
<path d="M32.391 46.1741C36.957 46.1741 40.6584 42.4726 40.6584 37.9066C40.6584 33.3406 36.957 29.6392 32.391 29.6392C27.825 29.6392 24.1235 33.3406 24.1235 37.9066C24.1235 42.4726 27.825 46.1741 32.391 46.1741Z" fill="#006262"/>
<path d="M36.155 44.3013H27.8391C27.5847 44.3013 27.3784 44.5075 27.3784 44.7619V45.1438C27.3784 45.3982 27.5847 45.6044 27.8391 45.6044H36.155C36.4094 45.6044 36.6157 45.3982 36.6157 45.1438V44.7619C36.6157 44.5075 36.4094 44.3013 36.155 44.3013Z" fill="white"/>
<path d="M35.9368 46.3257H28.0694C27.815 46.3257 27.6088 46.5319 27.6088 46.7863V47.1682C27.6088 47.4226 27.815 47.6288 28.0694 47.6288H35.9368C36.1912 47.6288 36.3975 47.4226 36.3975 47.1682V46.7863C36.3975 46.5319 36.1912 46.3257 35.9368 46.3257Z" fill="white"/>
<path d="M35.1306 48.4287H28.8755C28.6546 48.4287 28.4755 48.6078 28.4755 48.8287V49.1682C28.4755 49.3891 28.6546 49.5682 28.8755 49.5682H35.1306C35.3516 49.5682 35.5307 49.3891 35.5307 49.1682V48.8287C35.5307 48.6078 35.3516 48.4287 35.1306 48.4287Z" fill="white"/>
<path d="M34.2094 50.4048H29.7908C29.6067 50.4048 29.4574 50.554 29.4574 50.7381V51.0109C29.4574 51.195 29.6067 51.3443 29.7908 51.3443H34.2094C34.3935 51.3443 34.5427 51.195 34.5427 51.0109V50.7381C34.5427 50.554 34.3935 50.4048 34.2094 50.4048Z" fill="white"/>
<path d="M27.7572 43.1358C27.7557 41.7559 27.4537 40.3929 26.8723 39.1414C26.1207 37.5655 25.3388 37.1594 24.0417 35.1108C23.3021 34.0757 22.7219 32.9357 22.3203 31.7286C21.2354 27.9707 23.2235 24.4916 23.5993 23.8491C24.4789 22.289 25.7733 21.003 27.339 20.1336C28.7311 19.3812 30.2903 18.9914 31.8728 19.0001C33.4115 19.0208 34.9234 19.405 36.2853 20.1215C37.4843 20.7593 38.5424 21.6323 39.3963 22.6883C40.2503 23.7443 40.8826 24.9616 41.2555 26.2675C41.7582 27.9179 41.8001 29.6743 41.3767 31.3468C40.9626 32.7637 40.2748 34.0857 39.3523 35.238C38.8916 35.8442 38.7098 35.9654 38.2491 36.6442C37.6176 37.5834 37.1141 38.6026 36.752 39.6748C36.3749 40.7908 36.1526 41.9533 36.0914 43.1297L27.7572 43.1358Z" fill="white"/>
<path d="M32.3789 10.4131V16.0682" stroke="white" stroke-width="2" stroke-miterlimit="10" stroke-linecap="round"/>
<path d="M44.5012 27.4209H50.4594" stroke="white" stroke-width="2" stroke-miterlimit="10" stroke-linecap="round"/>
<path d="M13.8922 27.4209H19.8504" stroke="white" stroke-width="2" stroke-miterlimit="10" stroke-linecap="round"/>
<path d="M42.2708 19.7352L46.7318 15.2681" stroke="white" stroke-width="2" stroke-miterlimit="10" stroke-linecap="round"/>
<path d="M23.0083 19.8261L18.3533 15.1711" stroke="white" stroke-width="2" stroke-miterlimit="10" stroke-linecap="round"/>
<defs>
<linearGradient id="paint0_linear" x1="32.0092" y1="2.46679" x2="32.0092" y2="68.3033" gradientUnits="userSpaceOnUse">
<stop offset="0.01" stop-color="#FFEE00"/>
<stop offset="1" stop-color="#F3A817"/>
</linearGradient>
</defs>
</svg>
