<svg width="437" height="300" viewBox="0 0 437 300" fill="none" xmlns="http://www.w3.org/2000/svg">
<g style="mix-blend-mode:screen" opacity="0.2">
<path d="M58 24C64.6274 24 70 18.6274 70 12C70 5.37258 64.6274 0 58 0C51.3726 0 46 5.37258 46 12C46 18.6274 51.3726 24 58 24Z" fill="#FCF69A"/>
</g>
<g style="mix-blend-mode:screen" opacity="0.2">
<path d="M57.9996 21.3957C63.1884 21.3957 67.3947 17.1893 67.3947 12.0006C67.3947 6.8118 63.1884 2.60547 57.9996 2.60547C52.8108 2.60547 48.6045 6.8118 48.6045 12.0006C48.6045 17.1893 52.8108 21.3957 57.9996 21.3957Z" fill="#FCF69A"/>
</g>
<path d="M57.9998 18.7682C61.7379 18.7682 64.7682 15.7379 64.7682 11.9998C64.7682 8.26176 61.7379 5.23145 57.9998 5.23145C54.2618 5.23145 51.2314 8.26176 51.2314 11.9998C51.2314 15.7379 54.2618 18.7682 57.9998 18.7682Z" fill="#FCF69A"/>
<g style="mix-blend-mode:multiply">
<path d="M63.2204 7.69547C63.7981 11.7391 61.4548 16.2731 56.1796 16.2731C54.6551 16.3086 53.1601 15.8498 51.918 14.9652C52.3382 15.8233 52.9353 16.5827 53.6701 17.1934C54.4048 17.8041 55.2606 18.2524 56.181 18.5087C57.1014 18.765 58.0657 18.8235 59.0104 18.6804C59.955 18.5373 60.8587 18.1958 61.6619 17.6784C62.4651 17.161 63.1497 16.4794 63.6706 15.6784C64.1915 14.8775 64.5369 13.9753 64.6841 13.0313C64.8314 12.0872 64.777 11.1227 64.5248 10.2012C64.2725 9.27966 63.828 8.42198 63.2204 7.68457V7.69547Z" fill="#FCF69A"/>
</g>
<g style="mix-blend-mode:multiply">
<path d="M63.9066 8.75195C64.8439 12.9372 62.5333 17.9727 56.9856 17.9727C55.8577 17.9949 54.7395 17.7601 53.7158 17.286C54.9327 18.2941 56.4645 18.8438 58.0447 18.8396C59.6249 18.8353 61.1536 18.2774 62.3652 17.2629C63.5767 16.2483 64.3943 14.8413 64.6759 13.2863C64.9575 11.7314 64.6853 10.127 63.9066 8.75195Z" fill="#FCF69A"/>
</g>
<g style="mix-blend-mode:screen">
<path d="M56.2845 10.6164C57.5179 9.70271 58.0269 8.29937 57.4214 7.48194C56.8159 6.6645 55.3251 6.74252 54.0917 7.65619C52.8583 8.56987 52.3493 9.97321 52.9548 10.7906C53.5603 11.6081 55.0511 11.5301 56.2845 10.6164Z" fill="#FCF69A"/>
</g>
<g style="mix-blend-mode:screen" opacity="0.2">
<path d="M58 300C64.6274 300 70 294.627 70 288C70 281.373 64.6274 276 58 276C51.3726 276 46 281.373 46 288C46 294.627 51.3726 300 58 300Z" fill="#FCF69A"/>
</g>
<g style="mix-blend-mode:screen" opacity="0.2">
<path d="M57.9996 297.396C63.1884 297.396 67.3947 293.189 67.3947 288.001C67.3947 282.812 63.1884 278.605 57.9996 278.605C52.8108 278.605 48.6045 282.812 48.6045 288.001C48.6045 293.189 52.8108 297.396 57.9996 297.396Z" fill="#FCF69A"/>
</g>
<path d="M57.9998 294.768C61.7379 294.768 64.7682 291.738 64.7682 288C64.7682 284.262 61.7379 281.231 57.9998 281.231C54.2618 281.231 51.2314 284.262 51.2314 288C51.2314 291.738 54.2618 294.768 57.9998 294.768Z" fill="#FCF69A"/>
<g style="mix-blend-mode:multiply">
<path d="M63.2204 283.695C63.7981 287.739 61.4548 292.273 56.1796 292.273C54.6551 292.309 53.1601 291.85 51.918 290.965C52.3382 291.823 52.9353 292.583 53.6701 293.193C54.4048 293.804 55.2606 294.252 56.181 294.509C57.1014 294.765 58.0657 294.823 59.0104 294.68C59.955 294.537 60.8587 294.196 61.6619 293.678C62.4651 293.161 63.1497 292.479 63.6706 291.678C64.1915 290.877 64.5369 289.975 64.6841 289.031C64.8314 288.087 64.777 287.123 64.5248 286.201C64.2725 285.28 63.828 284.422 63.2204 283.685V283.695Z" fill="#FCF69A"/>
</g>
<g style="mix-blend-mode:multiply">
<path d="M63.9066 284.752C64.8439 288.937 62.5333 293.973 56.9856 293.973C55.8577 293.995 54.7395 293.76 53.7158 293.286C54.9327 294.294 56.4645 294.844 58.0447 294.84C59.6249 294.835 61.1536 294.277 62.3652 293.263C63.5767 292.248 64.3943 290.841 64.6759 289.286C64.9575 287.731 64.6853 286.127 63.9066 284.752Z" fill="#FCF69A"/>
</g>
<g style="mix-blend-mode:screen">
<path d="M56.2845 286.616C57.5179 285.703 58.0269 284.299 57.4214 283.482C56.8159 282.664 55.3251 282.743 54.0917 283.656C52.8583 284.57 52.3493 285.973 52.9548 286.791C53.5603 287.608 55.0511 287.53 56.2845 286.616Z" fill="#FCF69A"/>
</g>
<g style="mix-blend-mode:screen" opacity="0.2">
<path d="M18 29C24.6274 29 30 23.6274 30 17C30 10.3726 24.6274 5 18 5C11.3726 5 6 10.3726 6 17C6 23.6274 11.3726 29 18 29Z" fill="#FCF69A"/>
</g>
<g style="mix-blend-mode:screen" opacity="0.2">
<path d="M17.9996 26.3957C23.1884 26.3957 27.3947 22.1893 27.3947 17.0006C27.3947 11.8118 23.1884 7.60547 17.9996 7.60547C12.8108 7.60547 8.60449 11.8118 8.60449 17.0006C8.60449 22.1893 12.8108 26.3957 17.9996 26.3957Z" fill="#FCF69A"/>
</g>
<path d="M17.9998 23.7682C21.7379 23.7682 24.7682 20.7379 24.7682 16.9998C24.7682 13.2618 21.7379 10.2314 17.9998 10.2314C14.2618 10.2314 11.2314 13.2618 11.2314 16.9998C11.2314 20.7379 14.2618 23.7682 17.9998 23.7682Z" fill="#FCF69A"/>
<g style="mix-blend-mode:multiply">
<path d="M23.2204 12.6955C23.7981 16.7391 21.4548 21.2731 16.1796 21.2731C14.6551 21.3086 13.1601 20.8498 11.918 19.9652C12.3382 20.8233 12.9353 21.5827 13.6701 22.1934C14.4048 22.8041 15.2606 23.2524 16.181 23.5087C17.1014 23.765 18.0657 23.8235 19.0104 23.6804C19.955 23.5373 20.8587 23.1958 21.6619 22.6784C22.4651 22.161 23.1497 21.4794 23.6706 20.6784C24.1915 19.8775 24.5369 18.9753 24.6841 18.0313C24.8314 17.0872 24.777 16.1227 24.5248 15.2012C24.2725 14.2797 23.828 13.422 23.2204 12.6846V12.6955Z" fill="#FCF69A"/>
</g>
<g style="mix-blend-mode:multiply">
<path d="M23.9066 13.752C24.8439 17.9372 22.5333 22.9727 16.9856 22.9727C15.8577 22.9949 14.7395 22.7601 13.7158 22.286C14.9327 23.2941 16.4645 23.8438 18.0447 23.8396C19.6249 23.8353 21.1536 23.2774 22.3652 22.2629C23.5767 21.2483 24.3943 19.8413 24.6759 18.2863C24.9575 16.7314 24.6853 15.127 23.9066 13.752Z" fill="#FCF69A"/>
</g>
<g style="mix-blend-mode:screen">
<path d="M16.2845 15.6164C17.5179 14.7027 18.0269 13.2994 17.4214 12.4819C16.8159 11.6645 15.3251 11.7425 14.0917 12.6562C12.8583 13.5699 12.3493 14.9732 12.9548 15.7906C13.5603 16.6081 15.0511 16.5301 16.2845 15.6164Z" fill="#FCF69A"/>
</g>
<g style="mix-blend-mode:screen" opacity="0.2">
<path d="M12 67C18.6274 67 24 61.6274 24 55C24 48.3726 18.6274 43 12 43C5.37259 43 0 48.3726 0 55C0 61.6274 5.37259 67 12 67Z" fill="#FCF69A"/>
</g>
<g style="mix-blend-mode:screen" opacity="0.2">
<path d="M11.9996 64.3957C17.1884 64.3957 21.3947 60.1893 21.3947 55.0006C21.3947 49.8118 17.1884 45.6055 11.9996 45.6055C6.81082 45.6055 2.60449 49.8118 2.60449 55.0006C2.60449 60.1893 6.81082 64.3957 11.9996 64.3957Z" fill="#FCF69A"/>
</g>
<path d="M11.9998 61.7682C15.7379 61.7682 18.7682 58.7379 18.7682 54.9998C18.7682 51.2618 15.7379 48.2314 11.9998 48.2314C8.26176 48.2314 5.23145 51.2618 5.23145 54.9998C5.23145 58.7379 8.26176 61.7682 11.9998 61.7682Z" fill="#FCF69A"/>
<g style="mix-blend-mode:multiply">
<path d="M17.2204 50.6955C17.7981 54.7391 15.4548 59.2731 10.1796 59.2731C8.65508 59.3086 7.16006 58.8498 5.91797 57.9652C6.33819 58.8233 6.93532 59.5827 7.67008 60.1934C8.40484 60.8041 9.26058 61.2524 10.181 61.5087C11.1014 61.765 12.0657 61.8235 13.0104 61.6804C13.955 61.5373 14.8587 61.1958 15.6619 60.6784C16.4651 60.161 17.1497 59.4794 17.6706 58.6784C18.1915 57.8775 18.5369 56.9753 18.6841 56.0313C18.8314 55.0872 18.777 54.1227 18.5248 53.2012C18.2725 52.2797 17.828 51.422 17.2204 50.6846V50.6955Z" fill="#FCF69A"/>
</g>
<g style="mix-blend-mode:multiply">
<path d="M17.9066 51.752C18.8439 55.9372 16.5333 60.9727 10.9856 60.9727C9.85767 60.9949 8.73951 60.7601 7.71582 60.286C8.93274 61.2941 10.4645 61.8438 12.0447 61.8396C13.6249 61.8353 15.1536 61.2774 16.3652 60.2629C17.5767 59.2483 18.3943 57.8413 18.6759 56.2863C18.9575 54.7314 18.6853 53.127 17.9066 51.752Z" fill="#FCF69A"/>
</g>
<g style="mix-blend-mode:screen">
<path d="M10.2845 53.6164C11.5179 52.7027 12.0269 51.2994 11.4214 50.4819C10.8159 49.6645 9.32509 49.7425 8.09168 50.6562C6.85827 51.5699 6.34928 52.9732 6.95482 53.7906C7.56035 54.6081 9.0511 54.5301 10.2845 53.6164Z" fill="#FCF69A"/>
</g>
<g style="mix-blend-mode:screen" opacity="0.2">
<path d="M425 67C431.627 67 437 61.6274 437 55C437 48.3726 431.627 43 425 43C418.373 43 413 48.3726 413 55C413 61.6274 418.373 67 425 67Z" fill="#FCF69A"/>
</g>
<g style="mix-blend-mode:screen" opacity="0.2">
<path d="M425 64.3957C430.188 64.3957 434.395 60.1893 434.395 55.0006C434.395 49.8118 430.188 45.6055 425 45.6055C419.811 45.6055 415.604 49.8118 415.604 55.0006C415.604 60.1893 419.811 64.3957 425 64.3957Z" fill="#FCF69A"/>
</g>
<path d="M425 61.7682C428.738 61.7682 431.768 58.7379 431.768 54.9998C431.768 51.2618 428.738 48.2314 425 48.2314C421.262 48.2314 418.231 51.2618 418.231 54.9998C418.231 58.7379 421.262 61.7682 425 61.7682Z" fill="#FCF69A"/>
<g style="mix-blend-mode:multiply">
<path d="M430.22 50.6955C430.798 54.7391 428.455 59.2731 423.18 59.2731C421.655 59.3086 420.16 58.8498 418.918 57.9652C419.338 58.8233 419.935 59.5827 420.67 60.1934C421.405 60.8041 422.261 61.2524 423.181 61.5087C424.101 61.765 425.066 61.8235 426.01 61.6804C426.955 61.5373 427.859 61.1958 428.662 60.6784C429.465 60.161 430.15 59.4794 430.671 58.6784C431.191 57.8775 431.537 56.9753 431.684 56.0313C431.831 55.0872 431.777 54.1227 431.525 53.2012C431.272 52.2797 430.828 51.422 430.22 50.6846V50.6955Z" fill="#FCF69A"/>
</g>
<g style="mix-blend-mode:multiply">
<path d="M430.907 51.752C431.844 55.9372 429.533 60.9727 423.986 60.9727C422.858 60.9949 421.74 60.7601 420.716 60.286C421.933 61.2941 423.464 61.8438 425.045 61.8396C426.625 61.8353 428.154 61.2774 429.365 60.2629C430.577 59.2483 431.394 57.8413 431.676 56.2863C431.958 54.7314 431.685 53.127 430.907 51.752Z" fill="#FCF69A"/>
</g>
<g style="mix-blend-mode:screen">
<path d="M423.285 53.6164C424.518 52.7027 425.027 51.2994 424.421 50.4819C423.816 49.6645 422.325 49.7425 421.092 50.6562C419.858 51.5699 419.349 52.9732 419.955 53.7906C420.56 54.6081 422.051 54.5301 423.285 53.6164Z" fill="#FCF69A"/>
</g>
<g style="mix-blend-mode:screen" opacity="0.2">
<path d="M12 105C18.6274 105 24 99.6274 24 93C24 86.3726 18.6274 81 12 81C5.37259 81 0 86.3726 0 93C0 99.6274 5.37259 105 12 105Z" fill="#FCF69A"/>
</g>
<g style="mix-blend-mode:screen" opacity="0.2">
<path d="M11.9996 102.396C17.1884 102.396 21.3947 98.1893 21.3947 93.0006C21.3947 87.8118 17.1884 83.6055 11.9996 83.6055C6.81082 83.6055 2.60449 87.8118 2.60449 93.0006C2.60449 98.1893 6.81082 102.396 11.9996 102.396Z" fill="#FCF69A"/>
</g>
<path d="M11.9998 99.7682C15.7379 99.7682 18.7682 96.7379 18.7682 92.9998C18.7682 89.2618 15.7379 86.2314 11.9998 86.2314C8.26176 86.2314 5.23145 89.2618 5.23145 92.9998C5.23145 96.7379 8.26176 99.7682 11.9998 99.7682Z" fill="#FCF69A"/>
<g style="mix-blend-mode:multiply">
<path d="M17.2204 88.6955C17.7981 92.7391 15.4548 97.2731 10.1796 97.2731C8.65508 97.3086 7.16006 96.8498 5.91797 95.9652C6.33819 96.8233 6.93532 97.5827 7.67008 98.1934C8.40484 98.8041 9.26058 99.2524 10.181 99.5087C11.1014 99.765 12.0657 99.8235 13.0104 99.6804C13.955 99.5373 14.8587 99.1958 15.6619 98.6784C16.4651 98.161 17.1497 97.4794 17.6706 96.6784C18.1915 95.8775 18.5369 94.9753 18.6841 94.0313C18.8314 93.0872 18.777 92.1227 18.5248 91.2012C18.2725 90.2797 17.828 89.422 17.2204 88.6846V88.6955Z" fill="#FCF69A"/>
</g>
<g style="mix-blend-mode:multiply">
<path d="M17.9066 89.752C18.8439 93.9372 16.5333 98.9727 10.9856 98.9727C9.85767 98.9949 8.73951 98.7601 7.71582 98.286C8.93274 99.2941 10.4645 99.8438 12.0447 99.8396C13.6249 99.8353 15.1536 99.2774 16.3652 98.2629C17.5767 97.2483 18.3943 95.8413 18.6759 94.2863C18.9575 92.7314 18.6853 91.127 17.9066 89.752Z" fill="#FCF69A"/>
</g>
<g style="mix-blend-mode:screen">
<path d="M10.2845 91.6164C11.5179 90.7027 12.0269 89.2994 11.4214 88.4819C10.8159 87.6645 9.32509 87.7425 8.09168 88.6562C6.85827 89.5699 6.34928 90.9732 6.95482 91.7906C7.56035 92.6081 9.0511 92.5301 10.2845 91.6164Z" fill="#FCF69A"/>
</g>
<g style="mix-blend-mode:screen" opacity="0.2">
<path d="M425 105C431.627 105 437 99.6274 437 93C437 86.3726 431.627 81 425 81C418.373 81 413 86.3726 413 93C413 99.6274 418.373 105 425 105Z" fill="#FCF69A"/>
</g>
<g style="mix-blend-mode:screen" opacity="0.2">
<path d="M425 102.396C430.188 102.396 434.395 98.1893 434.395 93.0006C434.395 87.8118 430.188 83.6055 425 83.6055C419.811 83.6055 415.604 87.8118 415.604 93.0006C415.604 98.1893 419.811 102.396 425 102.396Z" fill="#FCF69A"/>
</g>
<path d="M425 99.7682C428.738 99.7682 431.768 96.7379 431.768 92.9998C431.768 89.2618 428.738 86.2314 425 86.2314C421.262 86.2314 418.231 89.2618 418.231 92.9998C418.231 96.7379 421.262 99.7682 425 99.7682Z" fill="#FCF69A"/>
<g style="mix-blend-mode:multiply">
<path d="M430.22 88.6955C430.798 92.7391 428.455 97.2731 423.18 97.2731C421.655 97.3086 420.16 96.8498 418.918 95.9652C419.338 96.8233 419.935 97.5827 420.67 98.1934C421.405 98.8041 422.261 99.2524 423.181 99.5087C424.101 99.765 425.066 99.8235 426.01 99.6804C426.955 99.5373 427.859 99.1958 428.662 98.6784C429.465 98.161 430.15 97.4794 430.671 96.6784C431.191 95.8775 431.537 94.9753 431.684 94.0313C431.831 93.0872 431.777 92.1227 431.525 91.2012C431.272 90.2797 430.828 89.422 430.22 88.6846V88.6955Z" fill="#FCF69A"/>
</g>
<g style="mix-blend-mode:multiply">
<path d="M430.907 89.752C431.844 93.9372 429.533 98.9727 423.986 98.9727C422.858 98.9949 421.74 98.7601 420.716 98.286C421.933 99.2941 423.464 99.8438 425.045 99.8396C426.625 99.8353 428.154 99.2774 429.365 98.2629C430.577 97.2483 431.394 95.8413 431.676 94.2863C431.958 92.7314 431.685 91.127 430.907 89.752Z" fill="#FCF69A"/>
</g>
<g style="mix-blend-mode:screen">
<path d="M423.285 91.6164C424.518 90.7027 425.027 89.2994 424.421 88.4819C423.816 87.6645 422.325 87.7425 421.092 88.6562C419.858 89.5699 419.349 90.9732 419.955 91.7906C420.56 92.6081 422.051 92.5301 423.285 91.6164Z" fill="#FCF69A"/>
</g>
<g style="mix-blend-mode:screen" opacity="0.2">
<path d="M12 143C18.6274 143 24 137.627 24 131C24 124.373 18.6274 119 12 119C5.37259 119 0 124.373 0 131C0 137.627 5.37259 143 12 143Z" fill="#FCF69A"/>
</g>
<g style="mix-blend-mode:screen" opacity="0.2">
<path d="M11.9996 140.396C17.1884 140.396 21.3947 136.189 21.3947 131.001C21.3947 125.812 17.1884 121.605 11.9996 121.605C6.81082 121.605 2.60449 125.812 2.60449 131.001C2.60449 136.189 6.81082 140.396 11.9996 140.396Z" fill="#FCF69A"/>
</g>
<path d="M11.9998 137.768C15.7379 137.768 18.7682 134.738 18.7682 131C18.7682 127.262 15.7379 124.231 11.9998 124.231C8.26176 124.231 5.23145 127.262 5.23145 131C5.23145 134.738 8.26176 137.768 11.9998 137.768Z" fill="#FCF69A"/>
<g style="mix-blend-mode:multiply">
<path d="M17.2204 126.695C17.7981 130.739 15.4548 135.273 10.1796 135.273C8.65508 135.309 7.16006 134.85 5.91797 133.965C6.33819 134.823 6.93532 135.583 7.67008 136.193C8.40484 136.804 9.26058 137.252 10.181 137.509C11.1014 137.765 12.0657 137.823 13.0104 137.68C13.955 137.537 14.8587 137.196 15.6619 136.678C16.4651 136.161 17.1497 135.479 17.6706 134.678C18.1915 133.877 18.5369 132.975 18.6841 132.031C18.8314 131.087 18.777 130.123 18.5248 129.201C18.2725 128.28 17.828 127.422 17.2204 126.685V126.695Z" fill="#FCF69A"/>
</g>
<g style="mix-blend-mode:multiply">
<path d="M17.9066 127.752C18.8439 131.937 16.5333 136.973 10.9856 136.973C9.85767 136.995 8.73951 136.76 7.71582 136.286C8.93274 137.294 10.4645 137.844 12.0447 137.84C13.6249 137.835 15.1536 137.277 16.3652 136.263C17.5767 135.248 18.3943 133.841 18.6759 132.286C18.9575 130.731 18.6853 129.127 17.9066 127.752Z" fill="#FCF69A"/>
</g>
<g style="mix-blend-mode:screen">
<path d="M10.2845 129.616C11.5179 128.703 12.0269 127.299 11.4214 126.482C10.8159 125.664 9.32509 125.743 8.09168 126.656C6.85827 127.57 6.34928 128.973 6.95482 129.791C7.56035 130.608 9.0511 130.53 10.2845 129.616Z" fill="#FCF69A"/>
</g>
<g style="mix-blend-mode:screen" opacity="0.2">
<path d="M425 143C431.627 143 437 137.627 437 131C437 124.373 431.627 119 425 119C418.373 119 413 124.373 413 131C413 137.627 418.373 143 425 143Z" fill="#FCF69A"/>
</g>
<g style="mix-blend-mode:screen" opacity="0.2">
<path d="M425 140.396C430.188 140.396 434.395 136.189 434.395 131.001C434.395 125.812 430.188 121.605 425 121.605C419.811 121.605 415.604 125.812 415.604 131.001C415.604 136.189 419.811 140.396 425 140.396Z" fill="#FCF69A"/>
</g>
<path d="M425 137.768C428.738 137.768 431.768 134.738 431.768 131C431.768 127.262 428.738 124.231 425 124.231C421.262 124.231 418.231 127.262 418.231 131C418.231 134.738 421.262 137.768 425 137.768Z" fill="#FCF69A"/>
<g style="mix-blend-mode:multiply">
<path d="M430.22 126.695C430.798 130.739 428.455 135.273 423.18 135.273C421.655 135.309 420.16 134.85 418.918 133.965C419.338 134.823 419.935 135.583 420.67 136.193C421.405 136.804 422.261 137.252 423.181 137.509C424.101 137.765 425.066 137.823 426.01 137.68C426.955 137.537 427.859 137.196 428.662 136.678C429.465 136.161 430.15 135.479 430.671 134.678C431.191 133.877 431.537 132.975 431.684 132.031C431.831 131.087 431.777 130.123 431.525 129.201C431.272 128.28 430.828 127.422 430.22 126.685V126.695Z" fill="#FCF69A"/>
</g>
<g style="mix-blend-mode:multiply">
<path d="M430.907 127.752C431.844 131.937 429.533 136.973 423.986 136.973C422.858 136.995 421.74 136.76 420.716 136.286C421.933 137.294 423.464 137.844 425.045 137.84C426.625 137.835 428.154 137.277 429.365 136.263C430.577 135.248 431.394 133.841 431.676 132.286C431.958 130.731 431.685 129.127 430.907 127.752Z" fill="#FCF69A"/>
</g>
<g style="mix-blend-mode:screen">
<path d="M423.285 129.616C424.518 128.703 425.027 127.299 424.421 126.482C423.816 125.664 422.325 125.743 421.092 126.656C419.858 127.57 419.349 128.973 419.955 129.791C420.56 130.608 422.051 130.53 423.285 129.616Z" fill="#FCF69A"/>
</g>
<g style="mix-blend-mode:screen" opacity="0.2">
<path d="M12 181C18.6274 181 24 175.627 24 169C24 162.373 18.6274 157 12 157C5.37259 157 0 162.373 0 169C0 175.627 5.37259 181 12 181Z" fill="#FCF69A"/>
</g>
<g style="mix-blend-mode:screen" opacity="0.2">
<path d="M11.9996 178.396C17.1884 178.396 21.3947 174.189 21.3947 169.001C21.3947 163.812 17.1884 159.605 11.9996 159.605C6.81082 159.605 2.60449 163.812 2.60449 169.001C2.60449 174.189 6.81082 178.396 11.9996 178.396Z" fill="#FCF69A"/>
</g>
<path d="M11.9998 175.768C15.7379 175.768 18.7682 172.738 18.7682 169C18.7682 165.262 15.7379 162.231 11.9998 162.231C8.26176 162.231 5.23145 165.262 5.23145 169C5.23145 172.738 8.26176 175.768 11.9998 175.768Z" fill="#FCF69A"/>
<g style="mix-blend-mode:multiply">
<path d="M17.2204 164.695C17.7981 168.739 15.4548 173.273 10.1796 173.273C8.65508 173.309 7.16006 172.85 5.91797 171.965C6.33819 172.823 6.93532 173.583 7.67008 174.193C8.40484 174.804 9.26058 175.252 10.181 175.509C11.1014 175.765 12.0657 175.823 13.0104 175.68C13.955 175.537 14.8587 175.196 15.6619 174.678C16.4651 174.161 17.1497 173.479 17.6706 172.678C18.1915 171.877 18.5369 170.975 18.6841 170.031C18.8314 169.087 18.777 168.123 18.5248 167.201C18.2725 166.28 17.828 165.422 17.2204 164.685V164.695Z" fill="#FCF69A"/>
</g>
<g style="mix-blend-mode:multiply">
<path d="M17.9066 165.752C18.8439 169.937 16.5333 174.973 10.9856 174.973C9.85767 174.995 8.73951 174.76 7.71582 174.286C8.93274 175.294 10.4645 175.844 12.0447 175.84C13.6249 175.835 15.1536 175.277 16.3652 174.263C17.5767 173.248 18.3943 171.841 18.6759 170.286C18.9575 168.731 18.6853 167.127 17.9066 165.752Z" fill="#FCF69A"/>
</g>
<g style="mix-blend-mode:screen">
<path d="M10.2845 167.616C11.5179 166.703 12.0269 165.299 11.4214 164.482C10.8159 163.664 9.32509 163.743 8.09168 164.656C6.85827 165.57 6.34928 166.973 6.95482 167.791C7.56035 168.608 9.0511 168.53 10.2845 167.616Z" fill="#FCF69A"/>
</g>
<g style="mix-blend-mode:screen" opacity="0.2">
<path d="M425 181C431.627 181 437 175.627 437 169C437 162.373 431.627 157 425 157C418.373 157 413 162.373 413 169C413 175.627 418.373 181 425 181Z" fill="#FCF69A"/>
</g>
<g style="mix-blend-mode:screen" opacity="0.2">
<path d="M425 178.396C430.188 178.396 434.395 174.189 434.395 169.001C434.395 163.812 430.188 159.605 425 159.605C419.811 159.605 415.604 163.812 415.604 169.001C415.604 174.189 419.811 178.396 425 178.396Z" fill="#FCF69A"/>
</g>
<path d="M425 175.768C428.738 175.768 431.768 172.738 431.768 169C431.768 165.262 428.738 162.231 425 162.231C421.262 162.231 418.231 165.262 418.231 169C418.231 172.738 421.262 175.768 425 175.768Z" fill="#FCF69A"/>
<g style="mix-blend-mode:multiply">
<path d="M430.22 164.695C430.798 168.739 428.455 173.273 423.18 173.273C421.655 173.309 420.16 172.85 418.918 171.965C419.338 172.823 419.935 173.583 420.67 174.193C421.405 174.804 422.261 175.252 423.181 175.509C424.101 175.765 425.066 175.823 426.01 175.68C426.955 175.537 427.859 175.196 428.662 174.678C429.465 174.161 430.15 173.479 430.671 172.678C431.191 171.877 431.537 170.975 431.684 170.031C431.831 169.087 431.777 168.123 431.525 167.201C431.272 166.28 430.828 165.422 430.22 164.685V164.695Z" fill="#FCF69A"/>
</g>
<g style="mix-blend-mode:multiply">
<path d="M430.907 165.752C431.844 169.937 429.533 174.973 423.986 174.973C422.858 174.995 421.74 174.76 420.716 174.286C421.933 175.294 423.464 175.844 425.045 175.84C426.625 175.835 428.154 175.277 429.365 174.263C430.577 173.248 431.394 171.841 431.676 170.286C431.958 168.731 431.685 167.127 430.907 165.752Z" fill="#FCF69A"/>
</g>
<g style="mix-blend-mode:screen">
<path d="M423.285 167.616C424.518 166.703 425.027 165.299 424.421 164.482C423.816 163.664 422.325 163.743 421.092 164.656C419.858 165.57 419.349 166.973 419.955 167.791C420.56 168.608 422.051 168.53 423.285 167.616Z" fill="#FCF69A"/>
</g>
<g style="mix-blend-mode:screen" opacity="0.2">
<path d="M12 219C18.6274 219 24 213.627 24 207C24 200.373 18.6274 195 12 195C5.37259 195 0 200.373 0 207C0 213.627 5.37259 219 12 219Z" fill="#FCF69A"/>
</g>
<g style="mix-blend-mode:screen" opacity="0.2">
<path d="M11.9996 216.396C17.1884 216.396 21.3947 212.189 21.3947 207.001C21.3947 201.812 17.1884 197.605 11.9996 197.605C6.81082 197.605 2.60449 201.812 2.60449 207.001C2.60449 212.189 6.81082 216.396 11.9996 216.396Z" fill="#FCF69A"/>
</g>
<path d="M11.9998 213.768C15.7379 213.768 18.7682 210.738 18.7682 207C18.7682 203.262 15.7379 200.231 11.9998 200.231C8.26176 200.231 5.23145 203.262 5.23145 207C5.23145 210.738 8.26176 213.768 11.9998 213.768Z" fill="#FCF69A"/>
<g style="mix-blend-mode:multiply">
<path d="M17.2204 202.695C17.7981 206.739 15.4548 211.273 10.1796 211.273C8.65508 211.309 7.16006 210.85 5.91797 209.965C6.33819 210.823 6.93532 211.583 7.67008 212.193C8.40484 212.804 9.26058 213.252 10.181 213.509C11.1014 213.765 12.0657 213.823 13.0104 213.68C13.955 213.537 14.8587 213.196 15.6619 212.678C16.4651 212.161 17.1497 211.479 17.6706 210.678C18.1915 209.877 18.5369 208.975 18.6841 208.031C18.8314 207.087 18.777 206.123 18.5248 205.201C18.2725 204.28 17.828 203.422 17.2204 202.685V202.695Z" fill="#FCF69A"/>
</g>
<g style="mix-blend-mode:multiply">
<path d="M17.9066 203.752C18.8439 207.937 16.5333 212.973 10.9856 212.973C9.85767 212.995 8.73951 212.76 7.71582 212.286C8.93274 213.294 10.4645 213.844 12.0447 213.84C13.6249 213.835 15.1536 213.277 16.3652 212.263C17.5767 211.248 18.3943 209.841 18.6759 208.286C18.9575 206.731 18.6853 205.127 17.9066 203.752Z" fill="#FCF69A"/>
</g>
<g style="mix-blend-mode:screen">
<path d="M10.2845 205.616C11.5179 204.703 12.0269 203.299 11.4214 202.482C10.8159 201.664 9.32509 201.743 8.09168 202.656C6.85827 203.57 6.34928 204.973 6.95482 205.791C7.56035 206.608 9.0511 206.53 10.2845 205.616Z" fill="#FCF69A"/>
</g>
<g style="mix-blend-mode:screen" opacity="0.2">
<path d="M425 219C431.627 219 437 213.627 437 207C437 200.373 431.627 195 425 195C418.373 195 413 200.373 413 207C413 213.627 418.373 219 425 219Z" fill="#FCF69A"/>
</g>
<g style="mix-blend-mode:screen" opacity="0.2">
<path d="M425 216.396C430.188 216.396 434.395 212.189 434.395 207.001C434.395 201.812 430.188 197.605 425 197.605C419.811 197.605 415.604 201.812 415.604 207.001C415.604 212.189 419.811 216.396 425 216.396Z" fill="#FCF69A"/>
</g>
<path d="M425 213.768C428.738 213.768 431.768 210.738 431.768 207C431.768 203.262 428.738 200.231 425 200.231C421.262 200.231 418.231 203.262 418.231 207C418.231 210.738 421.262 213.768 425 213.768Z" fill="#FCF69A"/>
<g style="mix-blend-mode:multiply">
<path d="M430.22 202.695C430.798 206.739 428.455 211.273 423.18 211.273C421.655 211.309 420.16 210.85 418.918 209.965C419.338 210.823 419.935 211.583 420.67 212.193C421.405 212.804 422.261 213.252 423.181 213.509C424.101 213.765 425.066 213.823 426.01 213.68C426.955 213.537 427.859 213.196 428.662 212.678C429.465 212.161 430.15 211.479 430.671 210.678C431.191 209.877 431.537 208.975 431.684 208.031C431.831 207.087 431.777 206.123 431.525 205.201C431.272 204.28 430.828 203.422 430.22 202.685V202.695Z" fill="#FCF69A"/>
</g>
<g style="mix-blend-mode:multiply">
<path d="M430.907 203.752C431.844 207.937 429.533 212.973 423.986 212.973C422.858 212.995 421.74 212.76 420.716 212.286C421.933 213.294 423.464 213.844 425.045 213.84C426.625 213.835 428.154 213.277 429.365 212.263C430.577 211.248 431.394 209.841 431.676 208.286C431.958 206.731 431.685 205.127 430.907 203.752Z" fill="#FCF69A"/>
</g>
<g style="mix-blend-mode:screen">
<path d="M423.285 205.616C424.518 204.703 425.027 203.299 424.421 202.482C423.816 201.664 422.325 201.743 421.092 202.656C419.858 203.57 419.349 204.973 419.955 205.791C420.56 206.608 422.051 206.53 423.285 205.616Z" fill="#FCF69A"/>
</g>
<g style="mix-blend-mode:screen" opacity="0.2">
<path d="M12 257C18.6274 257 24 251.627 24 245C24 238.373 18.6274 233 12 233C5.37259 233 0 238.373 0 245C0 251.627 5.37259 257 12 257Z" fill="#FCF69A"/>
</g>
<g style="mix-blend-mode:screen" opacity="0.2">
<path d="M11.9996 254.396C17.1884 254.396 21.3947 250.189 21.3947 245.001C21.3947 239.812 17.1884 235.605 11.9996 235.605C6.81082 235.605 2.60449 239.812 2.60449 245.001C2.60449 250.189 6.81082 254.396 11.9996 254.396Z" fill="#FCF69A"/>
</g>
<path d="M11.9998 251.768C15.7379 251.768 18.7682 248.738 18.7682 245C18.7682 241.262 15.7379 238.231 11.9998 238.231C8.26176 238.231 5.23145 241.262 5.23145 245C5.23145 248.738 8.26176 251.768 11.9998 251.768Z" fill="#FCF69A"/>
<g style="mix-blend-mode:multiply">
<path d="M17.2204 240.695C17.7981 244.739 15.4548 249.273 10.1796 249.273C8.65508 249.309 7.16006 248.85 5.91797 247.965C6.33819 248.823 6.93532 249.583 7.67008 250.193C8.40484 250.804 9.26058 251.252 10.181 251.509C11.1014 251.765 12.0657 251.823 13.0104 251.68C13.955 251.537 14.8587 251.196 15.6619 250.678C16.4651 250.161 17.1497 249.479 17.6706 248.678C18.1915 247.877 18.5369 246.975 18.6841 246.031C18.8314 245.087 18.777 244.123 18.5248 243.201C18.2725 242.28 17.828 241.422 17.2204 240.685V240.695Z" fill="#FCF69A"/>
</g>
<g style="mix-blend-mode:multiply">
<path d="M17.9066 241.752C18.8439 245.937 16.5333 250.973 10.9856 250.973C9.85767 250.995 8.73951 250.76 7.71582 250.286C8.93274 251.294 10.4645 251.844 12.0447 251.84C13.6249 251.835 15.1536 251.277 16.3652 250.263C17.5767 249.248 18.3943 247.841 18.6759 246.286C18.9575 244.731 18.6853 243.127 17.9066 241.752Z" fill="#FCF69A"/>
</g>
<g style="mix-blend-mode:screen">
<path d="M10.2845 243.616C11.5179 242.703 12.0269 241.299 11.4214 240.482C10.8159 239.664 9.32509 239.743 8.09168 240.656C6.85827 241.57 6.34928 242.973 6.95482 243.791C7.56035 244.608 9.0511 244.53 10.2845 243.616Z" fill="#FCF69A"/>
</g>
<g style="mix-blend-mode:screen" opacity="0.2">
<path d="M425 257C431.627 257 437 251.627 437 245C437 238.373 431.627 233 425 233C418.373 233 413 238.373 413 245C413 251.627 418.373 257 425 257Z" fill="#FCF69A"/>
</g>
<g style="mix-blend-mode:screen" opacity="0.2">
<path d="M425 254.396C430.188 254.396 434.395 250.189 434.395 245.001C434.395 239.812 430.188 235.605 425 235.605C419.811 235.605 415.604 239.812 415.604 245.001C415.604 250.189 419.811 254.396 425 254.396Z" fill="#FCF69A"/>
</g>
<path d="M425 251.768C428.738 251.768 431.768 248.738 431.768 245C431.768 241.262 428.738 238.231 425 238.231C421.262 238.231 418.231 241.262 418.231 245C418.231 248.738 421.262 251.768 425 251.768Z" fill="#FCF69A"/>
<g style="mix-blend-mode:multiply">
<path d="M430.22 240.695C430.798 244.739 428.455 249.273 423.18 249.273C421.655 249.309 420.16 248.85 418.918 247.965C419.338 248.823 419.935 249.583 420.67 250.193C421.405 250.804 422.261 251.252 423.181 251.509C424.101 251.765 425.066 251.823 426.01 251.68C426.955 251.537 427.859 251.196 428.662 250.678C429.465 250.161 430.15 249.479 430.671 248.678C431.191 247.877 431.537 246.975 431.684 246.031C431.831 245.087 431.777 244.123 431.525 243.201C431.272 242.28 430.828 241.422 430.22 240.685V240.695Z" fill="#FCF69A"/>
</g>
<g style="mix-blend-mode:multiply">
<path d="M430.907 241.752C431.844 245.937 429.533 250.973 423.986 250.973C422.858 250.995 421.74 250.76 420.716 250.286C421.933 251.294 423.464 251.844 425.045 251.84C426.625 251.835 428.154 251.277 429.365 250.263C430.577 249.248 431.394 247.841 431.676 246.286C431.958 244.731 431.685 243.127 430.907 241.752Z" fill="#FCF69A"/>
</g>
<g style="mix-blend-mode:screen">
<path d="M423.285 243.616C424.518 242.703 425.027 241.299 424.421 240.482C423.816 239.664 422.325 239.743 421.092 240.656C419.858 241.57 419.349 242.973 419.955 243.791C420.56 244.608 422.051 244.53 423.285 243.616Z" fill="#FCF69A"/>
</g>
<g style="mix-blend-mode:screen" opacity="0.2">
<path d="M15 294C21.6274 294 27 288.627 27 282C27 275.373 21.6274 270 15 270C8.37259 270 3 275.373 3 282C3 288.627 8.37259 294 15 294Z" fill="#FCF69A"/>
</g>
<g style="mix-blend-mode:screen" opacity="0.2">
<path d="M14.9996 291.396C20.1884 291.396 24.3947 287.189 24.3947 282.001C24.3947 276.812 20.1884 272.605 14.9996 272.605C9.81082 272.605 5.60449 276.812 5.60449 282.001C5.60449 287.189 9.81082 291.396 14.9996 291.396Z" fill="#FCF69A"/>
</g>
<path d="M14.9998 288.768C18.7379 288.768 21.7682 285.738 21.7682 282C21.7682 278.262 18.7379 275.231 14.9998 275.231C11.2618 275.231 8.23145 278.262 8.23145 282C8.23145 285.738 11.2618 288.768 14.9998 288.768Z" fill="#FCF69A"/>
<g style="mix-blend-mode:multiply">
<path d="M20.2204 277.695C20.7981 281.739 18.4548 286.273 13.1796 286.273C11.6551 286.309 10.1601 285.85 8.91797 284.965C9.33819 285.823 9.93532 286.583 10.6701 287.193C11.4048 287.804 12.2606 288.252 13.181 288.509C14.1014 288.765 15.0657 288.823 16.0104 288.68C16.955 288.537 17.8587 288.196 18.6619 287.678C19.4651 287.161 20.1497 286.479 20.6706 285.678C21.1915 284.877 21.5369 283.975 21.6841 283.031C21.8314 282.087 21.777 281.123 21.5248 280.201C21.2725 279.28 20.828 278.422 20.2204 277.685V277.695Z" fill="#FCF69A"/>
</g>
<g style="mix-blend-mode:multiply">
<path d="M20.9066 278.752C21.8439 282.937 19.5333 287.973 13.9856 287.973C12.8577 287.995 11.7395 287.76 10.7158 287.286C11.9327 288.294 13.4645 288.844 15.0447 288.84C16.6249 288.835 18.1536 288.277 19.3652 287.263C20.5767 286.248 21.3943 284.841 21.6759 283.286C21.9575 281.731 21.6853 280.127 20.9066 278.752Z" fill="#FCF69A"/>
</g>
<g style="mix-blend-mode:screen">
<path d="M13.2845 280.616C14.5179 279.703 15.0269 278.299 14.4214 277.482C13.8159 276.664 12.3251 276.743 11.0917 277.656C9.85827 278.57 9.34928 279.973 9.95482 280.791C10.5603 281.608 12.0511 281.53 13.2845 280.616Z" fill="#FCF69A"/>
</g>
<g style="mix-blend-mode:screen" opacity="0.2">
<path d="M422 294C428.627 294 434 288.627 434 282C434 275.373 428.627 270 422 270C415.373 270 410 275.373 410 282C410 288.627 415.373 294 422 294Z" fill="#FCF69A"/>
</g>
<g style="mix-blend-mode:screen" opacity="0.2">
<path d="M422 291.396C427.188 291.396 431.395 287.189 431.395 282.001C431.395 276.812 427.188 272.605 422 272.605C416.811 272.605 412.604 276.812 412.604 282.001C412.604 287.189 416.811 291.396 422 291.396Z" fill="#FCF69A"/>
</g>
<path d="M422 288.768C425.738 288.768 428.768 285.738 428.768 282C428.768 278.262 425.738 275.231 422 275.231C418.262 275.231 415.231 278.262 415.231 282C415.231 285.738 418.262 288.768 422 288.768Z" fill="#FCF69A"/>
<g style="mix-blend-mode:multiply">
<path d="M427.22 277.695C427.798 281.739 425.455 286.273 420.18 286.273C418.655 286.309 417.16 285.85 415.918 284.965C416.338 285.823 416.935 286.583 417.67 287.193C418.405 287.804 419.261 288.252 420.181 288.509C421.101 288.765 422.066 288.823 423.01 288.68C423.955 288.537 424.859 288.196 425.662 287.678C426.465 287.161 427.15 286.479 427.671 285.678C428.191 284.877 428.537 283.975 428.684 283.031C428.831 282.087 428.777 281.123 428.525 280.201C428.272 279.28 427.828 278.422 427.22 277.685V277.695Z" fill="#FCF69A"/>
</g>
<g style="mix-blend-mode:multiply">
<path d="M427.907 278.752C428.844 282.937 426.533 287.973 420.986 287.973C419.858 287.995 418.74 287.76 417.716 287.286C418.933 288.294 420.464 288.844 422.045 288.84C423.625 288.835 425.154 288.277 426.365 287.263C427.577 286.248 428.394 284.841 428.676 283.286C428.958 281.731 428.685 280.127 427.907 278.752Z" fill="#FCF69A"/>
</g>
<g style="mix-blend-mode:screen">
<path d="M420.285 280.616C421.518 279.703 422.027 278.299 421.421 277.482C420.816 276.664 419.325 276.743 418.092 277.656C416.858 278.57 416.349 279.973 416.955 280.791C417.56 281.608 419.051 281.53 420.285 280.616Z" fill="#FCF69A"/>
</g>
<g style="mix-blend-mode:screen" opacity="0.2">
<path d="M98 24C104.627 24 110 18.6274 110 12C110 5.37258 104.627 0 98 0C91.3726 0 86 5.37258 86 12C86 18.6274 91.3726 24 98 24Z" fill="#FCF69A"/>
</g>
<g style="mix-blend-mode:screen" opacity="0.2">
<path d="M97.9996 21.3957C103.188 21.3957 107.395 17.1893 107.395 12.0006C107.395 6.8118 103.188 2.60547 97.9996 2.60547C92.8108 2.60547 88.6045 6.8118 88.6045 12.0006C88.6045 17.1893 92.8108 21.3957 97.9996 21.3957Z" fill="#FCF69A"/>
</g>
<path d="M97.9998 18.7682C101.738 18.7682 104.768 15.7379 104.768 11.9998C104.768 8.26176 101.738 5.23145 97.9998 5.23145C94.2618 5.23145 91.2314 8.26176 91.2314 11.9998C91.2314 15.7379 94.2618 18.7682 97.9998 18.7682Z" fill="#FCF69A"/>
<g style="mix-blend-mode:multiply">
<path d="M103.22 7.69547C103.798 11.7391 101.455 16.2731 96.1796 16.2731C94.6551 16.3086 93.1601 15.8498 91.918 14.9652C92.3382 15.8233 92.9353 16.5827 93.6701 17.1934C94.4048 17.8041 95.2606 18.2524 96.181 18.5087C97.1014 18.765 98.0657 18.8235 99.0104 18.6804C99.955 18.5373 100.859 18.1958 101.662 17.6784C102.465 17.161 103.15 16.4794 103.671 15.6784C104.191 14.8775 104.537 13.9753 104.684 13.0313C104.831 12.0872 104.777 11.1227 104.525 10.2012C104.272 9.27966 103.828 8.42198 103.22 7.68457V7.69547Z" fill="#FCF69A"/>
</g>
<g style="mix-blend-mode:multiply">
<path d="M103.907 8.75195C104.844 12.9372 102.533 17.9727 96.9856 17.9727C95.8577 17.9949 94.7395 17.7601 93.7158 17.286C94.9327 18.2941 96.4645 18.8438 98.0447 18.8396C99.6249 18.8353 101.154 18.2774 102.365 17.2629C103.577 16.2483 104.394 14.8413 104.676 13.2863C104.958 11.7314 104.685 10.127 103.907 8.75195Z" fill="#FCF69A"/>
</g>
<g style="mix-blend-mode:screen">
<path d="M96.2845 10.6164C97.5179 9.70271 98.0269 8.29937 97.4214 7.48194C96.8159 6.6645 95.3251 6.74252 94.0917 7.65619C92.8583 8.56987 92.3493 9.97321 92.9548 10.7906C93.5603 11.6081 95.0511 11.5301 96.2845 10.6164Z" fill="#FCF69A"/>
</g>
<g style="mix-blend-mode:screen" opacity="0.2">
<path d="M98 300C104.627 300 110 294.627 110 288C110 281.373 104.627 276 98 276C91.3726 276 86 281.373 86 288C86 294.627 91.3726 300 98 300Z" fill="#FCF69A"/>
</g>
<g style="mix-blend-mode:screen" opacity="0.2">
<path d="M97.9996 297.396C103.188 297.396 107.395 293.189 107.395 288.001C107.395 282.812 103.188 278.605 97.9996 278.605C92.8108 278.605 88.6045 282.812 88.6045 288.001C88.6045 293.189 92.8108 297.396 97.9996 297.396Z" fill="#FCF69A"/>
</g>
<path d="M97.9998 294.768C101.738 294.768 104.768 291.738 104.768 288C104.768 284.262 101.738 281.231 97.9998 281.231C94.2618 281.231 91.2314 284.262 91.2314 288C91.2314 291.738 94.2618 294.768 97.9998 294.768Z" fill="#FCF69A"/>
<g style="mix-blend-mode:multiply">
<path d="M103.22 283.695C103.798 287.739 101.455 292.273 96.1796 292.273C94.6551 292.309 93.1601 291.85 91.918 290.965C92.3382 291.823 92.9353 292.583 93.6701 293.193C94.4048 293.804 95.2606 294.252 96.181 294.509C97.1014 294.765 98.0657 294.823 99.0104 294.68C99.955 294.537 100.859 294.196 101.662 293.678C102.465 293.161 103.15 292.479 103.671 291.678C104.191 290.877 104.537 289.975 104.684 289.031C104.831 288.087 104.777 287.123 104.525 286.201C104.272 285.28 103.828 284.422 103.22 283.685V283.695Z" fill="#FCF69A"/>
</g>
<g style="mix-blend-mode:multiply">
<path d="M103.907 284.752C104.844 288.937 102.533 293.973 96.9856 293.973C95.8577 293.995 94.7395 293.76 93.7158 293.286C94.9327 294.294 96.4645 294.844 98.0447 294.84C99.6249 294.835 101.154 294.277 102.365 293.263C103.577 292.248 104.394 290.841 104.676 289.286C104.958 287.731 104.685 286.127 103.907 284.752Z" fill="#FCF69A"/>
</g>
<g style="mix-blend-mode:screen">
<path d="M96.2845 286.616C97.5179 285.703 98.0269 284.299 97.4214 283.482C96.8159 282.664 95.3251 282.743 94.0917 283.656C92.8583 284.57 92.3493 285.973 92.9548 286.791C93.5603 287.608 95.0511 287.53 96.2845 286.616Z" fill="#FCF69A"/>
</g>
<g style="mix-blend-mode:screen" opacity="0.2">
<path d="M138 24C144.627 24 150 18.6274 150 12C150 5.37258 144.627 0 138 0C131.373 0 126 5.37258 126 12C126 18.6274 131.373 24 138 24Z" fill="#FCF69A"/>
</g>
<g style="mix-blend-mode:screen" opacity="0.2">
<path d="M138 21.3957C143.188 21.3957 147.395 17.1893 147.395 12.0006C147.395 6.8118 143.188 2.60547 138 2.60547C132.811 2.60547 128.604 6.8118 128.604 12.0006C128.604 17.1893 132.811 21.3957 138 21.3957Z" fill="#FCF69A"/>
</g>
<path d="M138 18.7682C141.738 18.7682 144.768 15.7379 144.768 11.9998C144.768 8.26176 141.738 5.23145 138 5.23145C134.262 5.23145 131.231 8.26176 131.231 11.9998C131.231 15.7379 134.262 18.7682 138 18.7682Z" fill="#FCF69A"/>
<g style="mix-blend-mode:multiply">
<path d="M143.22 7.69547C143.798 11.7391 141.455 16.2731 136.18 16.2731C134.655 16.3086 133.16 15.8498 131.918 14.9652C132.338 15.8233 132.935 16.5827 133.67 17.1934C134.405 17.8041 135.261 18.2524 136.181 18.5087C137.101 18.765 138.066 18.8235 139.01 18.6804C139.955 18.5373 140.859 18.1958 141.662 17.6784C142.465 17.161 143.15 16.4794 143.671 15.6784C144.191 14.8775 144.537 13.9753 144.684 13.0313C144.831 12.0872 144.777 11.1227 144.525 10.2012C144.272 9.27966 143.828 8.42198 143.22 7.68457V7.69547Z" fill="#FCF69A"/>
</g>
<g style="mix-blend-mode:multiply">
<path d="M143.907 8.75195C144.844 12.9372 142.533 17.9727 136.986 17.9727C135.858 17.9949 134.74 17.7601 133.716 17.286C134.933 18.2941 136.464 18.8438 138.045 18.8396C139.625 18.8353 141.154 18.2774 142.365 17.2629C143.577 16.2483 144.394 14.8413 144.676 13.2863C144.958 11.7314 144.685 10.127 143.907 8.75195Z" fill="#FCF69A"/>
</g>
<g style="mix-blend-mode:screen">
<path d="M136.285 10.6164C137.518 9.70271 138.027 8.29937 137.421 7.48194C136.816 6.6645 135.325 6.74252 134.092 7.65619C132.858 8.56987 132.349 9.97321 132.955 10.7906C133.56 11.6081 135.051 11.5301 136.285 10.6164Z" fill="#FCF69A"/>
</g>
<g style="mix-blend-mode:screen" opacity="0.2">
<path d="M138 300C144.627 300 150 294.627 150 288C150 281.373 144.627 276 138 276C131.373 276 126 281.373 126 288C126 294.627 131.373 300 138 300Z" fill="#FCF69A"/>
</g>
<g style="mix-blend-mode:screen" opacity="0.2">
<path d="M138 297.396C143.188 297.396 147.395 293.189 147.395 288.001C147.395 282.812 143.188 278.605 138 278.605C132.811 278.605 128.604 282.812 128.604 288.001C128.604 293.189 132.811 297.396 138 297.396Z" fill="#FCF69A"/>
</g>
<path d="M138 294.768C141.738 294.768 144.768 291.738 144.768 288C144.768 284.262 141.738 281.231 138 281.231C134.262 281.231 131.231 284.262 131.231 288C131.231 291.738 134.262 294.768 138 294.768Z" fill="#FCF69A"/>
<g style="mix-blend-mode:multiply">
<path d="M143.22 283.695C143.798 287.739 141.455 292.273 136.18 292.273C134.655 292.309 133.16 291.85 131.918 290.965C132.338 291.823 132.935 292.583 133.67 293.193C134.405 293.804 135.261 294.252 136.181 294.509C137.101 294.765 138.066 294.823 139.01 294.68C139.955 294.537 140.859 294.196 141.662 293.678C142.465 293.161 143.15 292.479 143.671 291.678C144.191 290.877 144.537 289.975 144.684 289.031C144.831 288.087 144.777 287.123 144.525 286.201C144.272 285.28 143.828 284.422 143.22 283.685V283.695Z" fill="#FCF69A"/>
</g>
<g style="mix-blend-mode:multiply">
<path d="M143.907 284.752C144.844 288.937 142.533 293.973 136.986 293.973C135.858 293.995 134.74 293.76 133.716 293.286C134.933 294.294 136.464 294.844 138.045 294.84C139.625 294.835 141.154 294.277 142.365 293.263C143.577 292.248 144.394 290.841 144.676 289.286C144.958 287.731 144.685 286.127 143.907 284.752Z" fill="#FCF69A"/>
</g>
<g style="mix-blend-mode:screen">
<path d="M136.285 286.616C137.518 285.703 138.027 284.299 137.421 283.482C136.816 282.664 135.325 282.743 134.092 283.656C132.858 284.57 132.349 285.973 132.955 286.791C133.56 287.608 135.051 287.53 136.285 286.616Z" fill="#FCF69A"/>
</g>
<g style="mix-blend-mode:screen" opacity="0.2">
<path d="M178 24C184.627 24 190 18.6274 190 12C190 5.37258 184.627 0 178 0C171.373 0 166 5.37258 166 12C166 18.6274 171.373 24 178 24Z" fill="#FCF69A"/>
</g>
<g style="mix-blend-mode:screen" opacity="0.2">
<path d="M178 21.3957C183.188 21.3957 187.395 17.1893 187.395 12.0006C187.395 6.8118 183.188 2.60547 178 2.60547C172.811 2.60547 168.604 6.8118 168.604 12.0006C168.604 17.1893 172.811 21.3957 178 21.3957Z" fill="#FCF69A"/>
</g>
<path d="M178 18.7682C181.738 18.7682 184.768 15.7379 184.768 11.9998C184.768 8.26176 181.738 5.23145 178 5.23145C174.262 5.23145 171.231 8.26176 171.231 11.9998C171.231 15.7379 174.262 18.7682 178 18.7682Z" fill="#FCF69A"/>
<g style="mix-blend-mode:multiply">
<path d="M183.22 7.69547C183.798 11.7391 181.455 16.2731 176.18 16.2731C174.655 16.3086 173.16 15.8498 171.918 14.9652C172.338 15.8233 172.935 16.5827 173.67 17.1934C174.405 17.8041 175.261 18.2524 176.181 18.5087C177.101 18.765 178.066 18.8235 179.01 18.6804C179.955 18.5373 180.859 18.1958 181.662 17.6784C182.465 17.161 183.15 16.4794 183.671 15.6784C184.191 14.8775 184.537 13.9753 184.684 13.0313C184.831 12.0872 184.777 11.1227 184.525 10.2012C184.272 9.27966 183.828 8.42198 183.22 7.68457V7.69547Z" fill="#FCF69A"/>
</g>
<g style="mix-blend-mode:multiply">
<path d="M183.907 8.75195C184.844 12.9372 182.533 17.9727 176.986 17.9727C175.858 17.9949 174.74 17.7601 173.716 17.286C174.933 18.2941 176.464 18.8438 178.045 18.8396C179.625 18.8353 181.154 18.2774 182.365 17.2629C183.577 16.2483 184.394 14.8413 184.676 13.2863C184.958 11.7314 184.685 10.127 183.907 8.75195Z" fill="#FCF69A"/>
</g>
<g style="mix-blend-mode:screen">
<path d="M176.285 10.6164C177.518 9.70271 178.027 8.29937 177.421 7.48194C176.816 6.6645 175.325 6.74252 174.092 7.65619C172.858 8.56987 172.349 9.97321 172.955 10.7906C173.56 11.6081 175.051 11.5301 176.285 10.6164Z" fill="#FCF69A"/>
</g>
<g style="mix-blend-mode:screen" opacity="0.2">
<path d="M178 300C184.627 300 190 294.627 190 288C190 281.373 184.627 276 178 276C171.373 276 166 281.373 166 288C166 294.627 171.373 300 178 300Z" fill="#FCF69A"/>
</g>
<g style="mix-blend-mode:screen" opacity="0.2">
<path d="M178 297.396C183.188 297.396 187.395 293.189 187.395 288.001C187.395 282.812 183.188 278.605 178 278.605C172.811 278.605 168.604 282.812 168.604 288.001C168.604 293.189 172.811 297.396 178 297.396Z" fill="#FCF69A"/>
</g>
<path d="M178 294.768C181.738 294.768 184.768 291.738 184.768 288C184.768 284.262 181.738 281.231 178 281.231C174.262 281.231 171.231 284.262 171.231 288C171.231 291.738 174.262 294.768 178 294.768Z" fill="#FCF69A"/>
<g style="mix-blend-mode:multiply">
<path d="M183.22 283.695C183.798 287.739 181.455 292.273 176.18 292.273C174.655 292.309 173.16 291.85 171.918 290.965C172.338 291.823 172.935 292.583 173.67 293.193C174.405 293.804 175.261 294.252 176.181 294.509C177.101 294.765 178.066 294.823 179.01 294.68C179.955 294.537 180.859 294.196 181.662 293.678C182.465 293.161 183.15 292.479 183.671 291.678C184.191 290.877 184.537 289.975 184.684 289.031C184.831 288.087 184.777 287.123 184.525 286.201C184.272 285.28 183.828 284.422 183.22 283.685V283.695Z" fill="#FCF69A"/>
</g>
<g style="mix-blend-mode:multiply">
<path d="M183.907 284.752C184.844 288.937 182.533 293.973 176.986 293.973C175.858 293.995 174.74 293.76 173.716 293.286C174.933 294.294 176.464 294.844 178.045 294.84C179.625 294.835 181.154 294.277 182.365 293.263C183.577 292.248 184.394 290.841 184.676 289.286C184.958 287.731 184.685 286.127 183.907 284.752Z" fill="#FCF69A"/>
</g>
<g style="mix-blend-mode:screen">
<path d="M176.285 286.616C177.518 285.703 178.027 284.299 177.421 283.482C176.816 282.664 175.325 282.743 174.092 283.656C172.858 284.57 172.349 285.973 172.955 286.791C173.56 287.608 175.051 287.53 176.285 286.616Z" fill="#FCF69A"/>
</g>
<g style="mix-blend-mode:screen" opacity="0.2">
<path d="M218 24C224.627 24 230 18.6274 230 12C230 5.37258 224.627 0 218 0C211.373 0 206 5.37258 206 12C206 18.6274 211.373 24 218 24Z" fill="#FCF69A"/>
</g>
<g style="mix-blend-mode:screen" opacity="0.2">
<path d="M218 21.3957C223.188 21.3957 227.395 17.1893 227.395 12.0006C227.395 6.8118 223.188 2.60547 218 2.60547C212.811 2.60547 208.604 6.8118 208.604 12.0006C208.604 17.1893 212.811 21.3957 218 21.3957Z" fill="#FCF69A"/>
</g>
<path d="M218 18.7682C221.738 18.7682 224.768 15.7379 224.768 11.9998C224.768 8.26176 221.738 5.23145 218 5.23145C214.262 5.23145 211.231 8.26176 211.231 11.9998C211.231 15.7379 214.262 18.7682 218 18.7682Z" fill="#FCF69A"/>
<g style="mix-blend-mode:multiply">
<path d="M223.22 7.69547C223.798 11.7391 221.455 16.2731 216.18 16.2731C214.655 16.3086 213.16 15.8498 211.918 14.9652C212.338 15.8233 212.935 16.5827 213.67 17.1934C214.405 17.8041 215.261 18.2524 216.181 18.5087C217.101 18.765 218.066 18.8235 219.01 18.6804C219.955 18.5373 220.859 18.1958 221.662 17.6784C222.465 17.161 223.15 16.4794 223.671 15.6784C224.191 14.8775 224.537 13.9753 224.684 13.0313C224.831 12.0872 224.777 11.1227 224.525 10.2012C224.272 9.27966 223.828 8.42198 223.22 7.68457V7.69547Z" fill="#FCF69A"/>
</g>
<g style="mix-blend-mode:multiply">
<path d="M223.907 8.75195C224.844 12.9372 222.533 17.9727 216.986 17.9727C215.858 17.9949 214.74 17.7601 213.716 17.286C214.933 18.2941 216.464 18.8438 218.045 18.8396C219.625 18.8353 221.154 18.2774 222.365 17.2629C223.577 16.2483 224.394 14.8413 224.676 13.2863C224.958 11.7314 224.685 10.127 223.907 8.75195Z" fill="#FCF69A"/>
</g>
<g style="mix-blend-mode:screen">
<path d="M216.285 10.6164C217.518 9.70271 218.027 8.29937 217.421 7.48194C216.816 6.6645 215.325 6.74252 214.092 7.65619C212.858 8.56987 212.349 9.97321 212.955 10.7906C213.56 11.6081 215.051 11.5301 216.285 10.6164Z" fill="#FCF69A"/>
</g>
<g style="mix-blend-mode:screen" opacity="0.2">
<path d="M218 300C224.627 300 230 294.627 230 288C230 281.373 224.627 276 218 276C211.373 276 206 281.373 206 288C206 294.627 211.373 300 218 300Z" fill="#FCF69A"/>
</g>
<g style="mix-blend-mode:screen" opacity="0.2">
<path d="M218 297.396C223.188 297.396 227.395 293.189 227.395 288.001C227.395 282.812 223.188 278.605 218 278.605C212.811 278.605 208.604 282.812 208.604 288.001C208.604 293.189 212.811 297.396 218 297.396Z" fill="#FCF69A"/>
</g>
<path d="M218 294.768C221.738 294.768 224.768 291.738 224.768 288C224.768 284.262 221.738 281.231 218 281.231C214.262 281.231 211.231 284.262 211.231 288C211.231 291.738 214.262 294.768 218 294.768Z" fill="#FCF69A"/>
<g style="mix-blend-mode:multiply">
<path d="M223.22 283.695C223.798 287.739 221.455 292.273 216.18 292.273C214.655 292.309 213.16 291.85 211.918 290.965C212.338 291.823 212.935 292.583 213.67 293.193C214.405 293.804 215.261 294.252 216.181 294.509C217.101 294.765 218.066 294.823 219.01 294.68C219.955 294.537 220.859 294.196 221.662 293.678C222.465 293.161 223.15 292.479 223.671 291.678C224.191 290.877 224.537 289.975 224.684 289.031C224.831 288.087 224.777 287.123 224.525 286.201C224.272 285.28 223.828 284.422 223.22 283.685V283.695Z" fill="#FCF69A"/>
</g>
<g style="mix-blend-mode:multiply">
<path d="M223.907 284.752C224.844 288.937 222.533 293.973 216.986 293.973C215.858 293.995 214.74 293.76 213.716 293.286C214.933 294.294 216.464 294.844 218.045 294.84C219.625 294.835 221.154 294.277 222.365 293.263C223.577 292.248 224.394 290.841 224.676 289.286C224.958 287.731 224.685 286.127 223.907 284.752Z" fill="#FCF69A"/>
</g>
<g style="mix-blend-mode:screen">
<path d="M216.285 286.616C217.518 285.703 218.027 284.299 217.421 283.482C216.816 282.664 215.325 282.743 214.092 283.656C212.858 284.57 212.349 285.973 212.955 286.791C213.56 287.608 215.051 287.53 216.285 286.616Z" fill="#FCF69A"/>
</g>
<g style="mix-blend-mode:screen" opacity="0.2">
<path d="M258 24C264.627 24 270 18.6274 270 12C270 5.37258 264.627 0 258 0C251.373 0 246 5.37258 246 12C246 18.6274 251.373 24 258 24Z" fill="#FCF69A"/>
</g>
<g style="mix-blend-mode:screen" opacity="0.2">
<path d="M258 21.3957C263.188 21.3957 267.395 17.1893 267.395 12.0006C267.395 6.8118 263.188 2.60547 258 2.60547C252.811 2.60547 248.604 6.8118 248.604 12.0006C248.604 17.1893 252.811 21.3957 258 21.3957Z" fill="#FCF69A"/>
</g>
<path d="M258 18.7682C261.738 18.7682 264.768 15.7379 264.768 11.9998C264.768 8.26176 261.738 5.23145 258 5.23145C254.262 5.23145 251.231 8.26176 251.231 11.9998C251.231 15.7379 254.262 18.7682 258 18.7682Z" fill="#FCF69A"/>
<g style="mix-blend-mode:multiply">
<path d="M263.22 7.69547C263.798 11.7391 261.455 16.2731 256.18 16.2731C254.655 16.3086 253.16 15.8498 251.918 14.9652C252.338 15.8233 252.935 16.5827 253.67 17.1934C254.405 17.8041 255.261 18.2524 256.181 18.5087C257.101 18.765 258.066 18.8235 259.01 18.6804C259.955 18.5373 260.859 18.1958 261.662 17.6784C262.465 17.161 263.15 16.4794 263.671 15.6784C264.191 14.8775 264.537 13.9753 264.684 13.0313C264.831 12.0872 264.777 11.1227 264.525 10.2012C264.272 9.27966 263.828 8.42198 263.22 7.68457V7.69547Z" fill="#FCF69A"/>
</g>
<g style="mix-blend-mode:multiply">
<path d="M263.907 8.75195C264.844 12.9372 262.533 17.9727 256.986 17.9727C255.858 17.9949 254.74 17.7601 253.716 17.286C254.933 18.2941 256.464 18.8438 258.045 18.8396C259.625 18.8353 261.154 18.2774 262.365 17.2629C263.577 16.2483 264.394 14.8413 264.676 13.2863C264.958 11.7314 264.685 10.127 263.907 8.75195Z" fill="#FCF69A"/>
</g>
<g style="mix-blend-mode:screen">
<path d="M256.285 10.6164C257.518 9.70271 258.027 8.29937 257.421 7.48194C256.816 6.6645 255.325 6.74252 254.092 7.65619C252.858 8.56987 252.349 9.97321 252.955 10.7906C253.56 11.6081 255.051 11.5301 256.285 10.6164Z" fill="#FCF69A"/>
</g>
<g style="mix-blend-mode:screen" opacity="0.2">
<path d="M258 300C264.627 300 270 294.627 270 288C270 281.373 264.627 276 258 276C251.373 276 246 281.373 246 288C246 294.627 251.373 300 258 300Z" fill="#FCF69A"/>
</g>
<g style="mix-blend-mode:screen" opacity="0.2">
<path d="M258 297.396C263.188 297.396 267.395 293.189 267.395 288.001C267.395 282.812 263.188 278.605 258 278.605C252.811 278.605 248.604 282.812 248.604 288.001C248.604 293.189 252.811 297.396 258 297.396Z" fill="#FCF69A"/>
</g>
<path d="M258 294.768C261.738 294.768 264.768 291.738 264.768 288C264.768 284.262 261.738 281.231 258 281.231C254.262 281.231 251.231 284.262 251.231 288C251.231 291.738 254.262 294.768 258 294.768Z" fill="#FCF69A"/>
<g style="mix-blend-mode:multiply">
<path d="M263.22 283.695C263.798 287.739 261.455 292.273 256.18 292.273C254.655 292.309 253.16 291.85 251.918 290.965C252.338 291.823 252.935 292.583 253.67 293.193C254.405 293.804 255.261 294.252 256.181 294.509C257.101 294.765 258.066 294.823 259.01 294.68C259.955 294.537 260.859 294.196 261.662 293.678C262.465 293.161 263.15 292.479 263.671 291.678C264.191 290.877 264.537 289.975 264.684 289.031C264.831 288.087 264.777 287.123 264.525 286.201C264.272 285.28 263.828 284.422 263.22 283.685V283.695Z" fill="#FCF69A"/>
</g>
<g style="mix-blend-mode:multiply">
<path d="M263.907 284.752C264.844 288.937 262.533 293.973 256.986 293.973C255.858 293.995 254.74 293.76 253.716 293.286C254.933 294.294 256.464 294.844 258.045 294.84C259.625 294.835 261.154 294.277 262.365 293.263C263.577 292.248 264.394 290.841 264.676 289.286C264.958 287.731 264.685 286.127 263.907 284.752Z" fill="#FCF69A"/>
</g>
<g style="mix-blend-mode:screen">
<path d="M256.285 286.616C257.518 285.703 258.027 284.299 257.421 283.482C256.816 282.664 255.325 282.743 254.092 283.656C252.858 284.57 252.349 285.973 252.955 286.791C253.56 287.608 255.051 287.53 256.285 286.616Z" fill="#FCF69A"/>
</g>
<g style="mix-blend-mode:screen" opacity="0.2">
<path d="M298 24C304.627 24 310 18.6274 310 12C310 5.37258 304.627 0 298 0C291.373 0 286 5.37258 286 12C286 18.6274 291.373 24 298 24Z" fill="#FCF69A"/>
</g>
<g style="mix-blend-mode:screen" opacity="0.2">
<path d="M298 21.3957C303.188 21.3957 307.395 17.1893 307.395 12.0006C307.395 6.8118 303.188 2.60547 298 2.60547C292.811 2.60547 288.604 6.8118 288.604 12.0006C288.604 17.1893 292.811 21.3957 298 21.3957Z" fill="#FCF69A"/>
</g>
<path d="M298 18.7682C301.738 18.7682 304.768 15.7379 304.768 11.9998C304.768 8.26176 301.738 5.23145 298 5.23145C294.262 5.23145 291.231 8.26176 291.231 11.9998C291.231 15.7379 294.262 18.7682 298 18.7682Z" fill="#FCF69A"/>
<g style="mix-blend-mode:multiply">
<path d="M303.22 7.69547C303.798 11.7391 301.455 16.2731 296.18 16.2731C294.655 16.3086 293.16 15.8498 291.918 14.9652C292.338 15.8233 292.935 16.5827 293.67 17.1934C294.405 17.8041 295.261 18.2524 296.181 18.5087C297.101 18.765 298.066 18.8235 299.01 18.6804C299.955 18.5373 300.859 18.1958 301.662 17.6784C302.465 17.161 303.15 16.4794 303.671 15.6784C304.191 14.8775 304.537 13.9753 304.684 13.0313C304.831 12.0872 304.777 11.1227 304.525 10.2012C304.272 9.27966 303.828 8.42198 303.22 7.68457V7.69547Z" fill="#FCF69A"/>
</g>
<g style="mix-blend-mode:multiply">
<path d="M303.907 8.75195C304.844 12.9372 302.533 17.9727 296.986 17.9727C295.858 17.9949 294.74 17.7601 293.716 17.286C294.933 18.2941 296.464 18.8438 298.045 18.8396C299.625 18.8353 301.154 18.2774 302.365 17.2629C303.577 16.2483 304.394 14.8413 304.676 13.2863C304.958 11.7314 304.685 10.127 303.907 8.75195Z" fill="#FCF69A"/>
</g>
<g style="mix-blend-mode:screen">
<path d="M296.285 10.6164C297.518 9.70271 298.027 8.29937 297.421 7.48194C296.816 6.6645 295.325 6.74252 294.092 7.65619C292.858 8.56987 292.349 9.97321 292.955 10.7906C293.56 11.6081 295.051 11.5301 296.285 10.6164Z" fill="#FCF69A"/>
</g>
<g style="mix-blend-mode:screen" opacity="0.2">
<path d="M298 300C304.627 300 310 294.627 310 288C310 281.373 304.627 276 298 276C291.373 276 286 281.373 286 288C286 294.627 291.373 300 298 300Z" fill="#FCF69A"/>
</g>
<g style="mix-blend-mode:screen" opacity="0.2">
<path d="M298 297.396C303.188 297.396 307.395 293.189 307.395 288.001C307.395 282.812 303.188 278.605 298 278.605C292.811 278.605 288.604 282.812 288.604 288.001C288.604 293.189 292.811 297.396 298 297.396Z" fill="#FCF69A"/>
</g>
<path d="M298 294.768C301.738 294.768 304.768 291.738 304.768 288C304.768 284.262 301.738 281.231 298 281.231C294.262 281.231 291.231 284.262 291.231 288C291.231 291.738 294.262 294.768 298 294.768Z" fill="#FCF69A"/>
<g style="mix-blend-mode:multiply">
<path d="M303.22 283.695C303.798 287.739 301.455 292.273 296.18 292.273C294.655 292.309 293.16 291.85 291.918 290.965C292.338 291.823 292.935 292.583 293.67 293.193C294.405 293.804 295.261 294.252 296.181 294.509C297.101 294.765 298.066 294.823 299.01 294.68C299.955 294.537 300.859 294.196 301.662 293.678C302.465 293.161 303.15 292.479 303.671 291.678C304.191 290.877 304.537 289.975 304.684 289.031C304.831 288.087 304.777 287.123 304.525 286.201C304.272 285.28 303.828 284.422 303.22 283.685V283.695Z" fill="#FCF69A"/>
</g>
<g style="mix-blend-mode:multiply">
<path d="M303.907 284.752C304.844 288.937 302.533 293.973 296.986 293.973C295.858 293.995 294.74 293.76 293.716 293.286C294.933 294.294 296.464 294.844 298.045 294.84C299.625 294.835 301.154 294.277 302.365 293.263C303.577 292.248 304.394 290.841 304.676 289.286C304.958 287.731 304.685 286.127 303.907 284.752Z" fill="#FCF69A"/>
</g>
<g style="mix-blend-mode:screen">
<path d="M296.285 286.616C297.518 285.703 298.027 284.299 297.421 283.482C296.816 282.664 295.325 282.743 294.092 283.656C292.858 284.57 292.349 285.973 292.955 286.791C293.56 287.608 295.051 287.53 296.285 286.616Z" fill="#FCF69A"/>
</g>
<g style="mix-blend-mode:screen" opacity="0.2">
<path d="M338 24C344.627 24 350 18.6274 350 12C350 5.37258 344.627 0 338 0C331.373 0 326 5.37258 326 12C326 18.6274 331.373 24 338 24Z" fill="#FCF69A"/>
</g>
<g style="mix-blend-mode:screen" opacity="0.2">
<path d="M338 21.3957C343.188 21.3957 347.395 17.1893 347.395 12.0006C347.395 6.8118 343.188 2.60547 338 2.60547C332.811 2.60547 328.604 6.8118 328.604 12.0006C328.604 17.1893 332.811 21.3957 338 21.3957Z" fill="#FCF69A"/>
</g>
<path d="M338 18.7682C341.738 18.7682 344.768 15.7379 344.768 11.9998C344.768 8.26176 341.738 5.23145 338 5.23145C334.262 5.23145 331.231 8.26176 331.231 11.9998C331.231 15.7379 334.262 18.7682 338 18.7682Z" fill="#FCF69A"/>
<g style="mix-blend-mode:multiply">
<path d="M343.22 7.69547C343.798 11.7391 341.455 16.2731 336.18 16.2731C334.655 16.3086 333.16 15.8498 331.918 14.9652C332.338 15.8233 332.935 16.5827 333.67 17.1934C334.405 17.8041 335.261 18.2524 336.181 18.5087C337.101 18.765 338.066 18.8235 339.01 18.6804C339.955 18.5373 340.859 18.1958 341.662 17.6784C342.465 17.161 343.15 16.4794 343.671 15.6784C344.191 14.8775 344.537 13.9753 344.684 13.0313C344.831 12.0872 344.777 11.1227 344.525 10.2012C344.272 9.27966 343.828 8.42198 343.22 7.68457V7.69547Z" fill="#FCF69A"/>
</g>
<g style="mix-blend-mode:multiply">
<path d="M343.907 8.75195C344.844 12.9372 342.533 17.9727 336.986 17.9727C335.858 17.9949 334.74 17.7601 333.716 17.286C334.933 18.2941 336.464 18.8438 338.045 18.8396C339.625 18.8353 341.154 18.2774 342.365 17.2629C343.577 16.2483 344.394 14.8413 344.676 13.2863C344.958 11.7314 344.685 10.127 343.907 8.75195Z" fill="#FCF69A"/>
</g>
<g style="mix-blend-mode:screen">
<path d="M336.285 10.6164C337.518 9.70271 338.027 8.29937 337.421 7.48194C336.816 6.6645 335.325 6.74252 334.092 7.65619C332.858 8.56987 332.349 9.97321 332.955 10.7906C333.56 11.6081 335.051 11.5301 336.285 10.6164Z" fill="#FCF69A"/>
</g>
<g style="mix-blend-mode:screen" opacity="0.2">
<path d="M338 300C344.627 300 350 294.627 350 288C350 281.373 344.627 276 338 276C331.373 276 326 281.373 326 288C326 294.627 331.373 300 338 300Z" fill="#FCF69A"/>
</g>
<g style="mix-blend-mode:screen" opacity="0.2">
<path d="M338 297.396C343.188 297.396 347.395 293.189 347.395 288.001C347.395 282.812 343.188 278.605 338 278.605C332.811 278.605 328.604 282.812 328.604 288.001C328.604 293.189 332.811 297.396 338 297.396Z" fill="#FCF69A"/>
</g>
<path d="M338 294.768C341.738 294.768 344.768 291.738 344.768 288C344.768 284.262 341.738 281.231 338 281.231C334.262 281.231 331.231 284.262 331.231 288C331.231 291.738 334.262 294.768 338 294.768Z" fill="#FCF69A"/>
<g style="mix-blend-mode:multiply">
<path d="M343.22 283.695C343.798 287.739 341.455 292.273 336.18 292.273C334.655 292.309 333.16 291.85 331.918 290.965C332.338 291.823 332.935 292.583 333.67 293.193C334.405 293.804 335.261 294.252 336.181 294.509C337.101 294.765 338.066 294.823 339.01 294.68C339.955 294.537 340.859 294.196 341.662 293.678C342.465 293.161 343.15 292.479 343.671 291.678C344.191 290.877 344.537 289.975 344.684 289.031C344.831 288.087 344.777 287.123 344.525 286.201C344.272 285.28 343.828 284.422 343.22 283.685V283.695Z" fill="#FCF69A"/>
</g>
<g style="mix-blend-mode:multiply">
<path d="M343.907 284.752C344.844 288.937 342.533 293.973 336.986 293.973C335.858 293.995 334.74 293.76 333.716 293.286C334.933 294.294 336.464 294.844 338.045 294.84C339.625 294.835 341.154 294.277 342.365 293.263C343.577 292.248 344.394 290.841 344.676 289.286C344.958 287.731 344.685 286.127 343.907 284.752Z" fill="#FCF69A"/>
</g>
<g style="mix-blend-mode:screen">
<path d="M336.285 286.616C337.518 285.703 338.027 284.299 337.421 283.482C336.816 282.664 335.325 282.743 334.092 283.656C332.858 284.57 332.349 285.973 332.955 286.791C333.56 287.608 335.051 287.53 336.285 286.616Z" fill="#FCF69A"/>
</g>
<g style="mix-blend-mode:screen" opacity="0.2">
<path d="M378 24C384.627 24 390 18.6274 390 12C390 5.37258 384.627 0 378 0C371.373 0 366 5.37258 366 12C366 18.6274 371.373 24 378 24Z" fill="#FCF69A"/>
</g>
<g style="mix-blend-mode:screen" opacity="0.2">
<path d="M378 21.3957C383.188 21.3957 387.395 17.1893 387.395 12.0006C387.395 6.8118 383.188 2.60547 378 2.60547C372.811 2.60547 368.604 6.8118 368.604 12.0006C368.604 17.1893 372.811 21.3957 378 21.3957Z" fill="#FCF69A"/>
</g>
<path d="M378 18.7682C381.738 18.7682 384.768 15.7379 384.768 11.9998C384.768 8.26176 381.738 5.23145 378 5.23145C374.262 5.23145 371.231 8.26176 371.231 11.9998C371.231 15.7379 374.262 18.7682 378 18.7682Z" fill="#FCF69A"/>
<g style="mix-blend-mode:multiply">
<path d="M383.22 7.69547C383.798 11.7391 381.455 16.2731 376.18 16.2731C374.655 16.3086 373.16 15.8498 371.918 14.9652C372.338 15.8233 372.935 16.5827 373.67 17.1934C374.405 17.8041 375.261 18.2524 376.181 18.5087C377.101 18.765 378.066 18.8235 379.01 18.6804C379.955 18.5373 380.859 18.1958 381.662 17.6784C382.465 17.161 383.15 16.4794 383.671 15.6784C384.191 14.8775 384.537 13.9753 384.684 13.0313C384.831 12.0872 384.777 11.1227 384.525 10.2012C384.272 9.27966 383.828 8.42198 383.22 7.68457V7.69547Z" fill="#FCF69A"/>
</g>
<g style="mix-blend-mode:multiply">
<path d="M383.907 8.75195C384.844 12.9372 382.533 17.9727 376.986 17.9727C375.858 17.9949 374.74 17.7601 373.716 17.286C374.933 18.2941 376.464 18.8438 378.045 18.8396C379.625 18.8353 381.154 18.2774 382.365 17.2629C383.577 16.2483 384.394 14.8413 384.676 13.2863C384.958 11.7314 384.685 10.127 383.907 8.75195Z" fill="#FCF69A"/>
</g>
<g style="mix-blend-mode:screen">
<path d="M376.285 10.6164C377.518 9.70271 378.027 8.29937 377.421 7.48194C376.816 6.6645 375.325 6.74252 374.092 7.65619C372.858 8.56987 372.349 9.97321 372.955 10.7906C373.56 11.6081 375.051 11.5301 376.285 10.6164Z" fill="#FCF69A"/>
</g>
<g style="mix-blend-mode:screen" opacity="0.2">
<path d="M378 300C384.627 300 390 294.627 390 288C390 281.373 384.627 276 378 276C371.373 276 366 281.373 366 288C366 294.627 371.373 300 378 300Z" fill="#FCF69A"/>
</g>
<g style="mix-blend-mode:screen" opacity="0.2">
<path d="M378 297.396C383.188 297.396 387.395 293.189 387.395 288.001C387.395 282.812 383.188 278.605 378 278.605C372.811 278.605 368.604 282.812 368.604 288.001C368.604 293.189 372.811 297.396 378 297.396Z" fill="#FCF69A"/>
</g>
<path d="M378 294.768C381.738 294.768 384.768 291.738 384.768 288C384.768 284.262 381.738 281.231 378 281.231C374.262 281.231 371.231 284.262 371.231 288C371.231 291.738 374.262 294.768 378 294.768Z" fill="#FCF69A"/>
<g style="mix-blend-mode:multiply">
<path d="M383.22 283.695C383.798 287.739 381.455 292.273 376.18 292.273C374.655 292.309 373.16 291.85 371.918 290.965C372.338 291.823 372.935 292.583 373.67 293.193C374.405 293.804 375.261 294.252 376.181 294.509C377.101 294.765 378.066 294.823 379.01 294.68C379.955 294.537 380.859 294.196 381.662 293.678C382.465 293.161 383.15 292.479 383.671 291.678C384.191 290.877 384.537 289.975 384.684 289.031C384.831 288.087 384.777 287.123 384.525 286.201C384.272 285.28 383.828 284.422 383.22 283.685V283.695Z" fill="#FCF69A"/>
</g>
<g style="mix-blend-mode:multiply">
<path d="M383.907 284.752C384.844 288.937 382.533 293.973 376.986 293.973C375.858 293.995 374.74 293.76 373.716 293.286C374.933 294.294 376.464 294.844 378.045 294.84C379.625 294.835 381.154 294.277 382.365 293.263C383.577 292.248 384.394 290.841 384.676 289.286C384.958 287.731 384.685 286.127 383.907 284.752Z" fill="#FCF69A"/>
</g>
<g style="mix-blend-mode:screen">
<path d="M376.285 286.616C377.518 285.703 378.027 284.299 377.421 283.482C376.816 282.664 375.325 282.743 374.092 283.656C372.858 284.57 372.349 285.973 372.955 286.791C373.56 287.608 375.051 287.53 376.285 286.616Z" fill="#FCF69A"/>
</g>
<g style="mix-blend-mode:screen" opacity="0.2">
<path d="M420 28C426.627 28 432 22.6274 432 16C432 9.37258 426.627 4 420 4C413.373 4 408 9.37258 408 16C408 22.6274 413.373 28 420 28Z" fill="#FCF69A"/>
</g>
<g style="mix-blend-mode:screen" opacity="0.2">
<path d="M420 25.3957C425.188 25.3957 429.395 21.1893 429.395 16.0006C429.395 10.8118 425.188 6.60547 420 6.60547C414.811 6.60547 410.604 10.8118 410.604 16.0006C410.604 21.1893 414.811 25.3957 420 25.3957Z" fill="#FCF69A"/>
</g>
<path d="M420 22.7682C423.738 22.7682 426.768 19.7379 426.768 15.9998C426.768 12.2618 423.738 9.23145 420 9.23145C416.262 9.23145 413.231 12.2618 413.231 15.9998C413.231 19.7379 416.262 22.7682 420 22.7682Z" fill="#FCF69A"/>
<g style="mix-blend-mode:multiply">
<path d="M425.22 11.6955C425.798 15.7391 423.455 20.2731 418.18 20.2731C416.655 20.3086 415.16 19.8498 413.918 18.9652C414.338 19.8233 414.935 20.5827 415.67 21.1934C416.405 21.8041 417.261 22.2524 418.181 22.5087C419.101 22.765 420.066 22.8235 421.01 22.6804C421.955 22.5373 422.859 22.1958 423.662 21.6784C424.465 21.161 425.15 20.4794 425.671 19.6784C426.191 18.8775 426.537 17.9753 426.684 17.0313C426.831 16.0872 426.777 15.1227 426.525 14.2012C426.272 13.2797 425.828 12.422 425.22 11.6846V11.6955Z" fill="#FCF69A"/>
</g>
<g style="mix-blend-mode:multiply">
<path d="M425.907 12.752C426.844 16.9372 424.533 21.9727 418.986 21.9727C417.858 21.9949 416.74 21.7601 415.716 21.286C416.933 22.2941 418.464 22.8438 420.045 22.8396C421.625 22.8353 423.154 22.2774 424.365 21.2629C425.577 20.2483 426.394 18.8413 426.676 17.2863C426.958 15.7314 426.685 14.127 425.907 12.752Z" fill="#FCF69A"/>
</g>
<g style="mix-blend-mode:screen">
<path d="M418.285 14.6164C419.518 13.7027 420.027 12.2994 419.421 11.4819C418.816 10.6645 417.325 10.7425 416.092 11.6562C414.858 12.5699 414.349 13.9732 414.955 14.7906C415.56 15.6081 417.051 15.5301 418.285 14.6164Z" fill="#FCF69A"/>
</g>
</svg>
