<svg width="48" height="48" viewBox="0 0 48 48" fill="none" xmlns="http://www.w3.org/2000/svg">
<g clip-path="url(#clip0)">
<path d="M24.0158 24.0459C21.0293 24.0459 18.5995 26.4761 18.5995 29.4629C18.5995 31.0035 19.2513 32.4504 20.3749 33.4692V37.1112C20.3749 39.1188 22.0082 40.7521 24.0158 40.7521C26.023 40.7521 27.6563 39.1188 27.6563 37.1112V33.4692C28.7798 32.4504 29.4317 31.0035 29.4317 29.4629C29.4317 26.4761 27.0018 24.0459 24.0158 24.0459ZM25.3967 31.5507L24.7464 31.9821V37.1112C24.7464 37.5144 24.4186 37.8422 24.0158 37.8422C23.6129 37.8422 23.2852 37.5144 23.2852 37.1112V31.9821L22.6348 31.5507C21.9302 31.083 21.5098 30.3026 21.5098 29.4629C21.5098 28.0804 22.634 26.9562 24.0158 26.9562C25.3975 26.9562 26.5214 28.0804 26.5214 29.4629C26.5214 30.3026 26.101 31.083 25.3967 31.5507Z" fill="#FF8800"/>
<path d="M36.9306 17.3951V12.0967C36.9306 5.37489 31.4616 -0.09375 24.7398 -0.09375H23.2914C16.5696 -0.09375 11.1006 5.37489 11.1006 12.0967V17.3951C8.60669 18.412 6.84375 20.862 6.84375 23.7173V41.0805C6.84375 44.8445 9.90565 47.9063 13.6692 47.9063H34.362C38.1256 47.9063 41.1874 44.8445 41.1874 41.0805V23.7173C41.1874 20.862 39.4245 18.412 36.9306 17.3951ZM14.0109 12.0967C14.0109 6.97963 18.1743 2.81653 23.2914 2.81653H24.7398C29.8572 2.81653 34.0203 6.97963 34.0203 12.0967V16.8919H30.9236V12.0967C30.9236 8.68691 28.1496 5.91322 24.7398 5.91322H23.2914C19.8816 5.91322 17.1076 8.68691 17.1076 12.0967V16.8919H14.0109V12.0967ZM28.0133 16.8919H20.0178V12.0967C20.0178 10.292 21.4864 8.82314 23.2914 8.82314H24.7398C26.5448 8.82314 28.0133 10.292 28.0133 12.0967V16.8919ZM38.2772 41.0805C38.2772 43.2397 36.5208 44.9961 34.362 44.9961H13.6692C11.5104 44.9961 9.75403 43.2397 9.75403 41.0805V23.7173C9.75403 21.5585 11.5104 19.8022 13.6692 19.8022H34.362C36.5208 19.8022 38.2772 21.5585 38.2772 23.7173V41.0805Z" fill="#FF8800"/>
</g>
<defs>
<clipPath id="clip0">
<rect width="48" height="48" fill="white"/>
</clipPath>
</defs>
</svg>
