<svg width="64" height="64" viewBox="0 0 64 64" fill="none" xmlns="http://www.w3.org/2000/svg">
<path d="M30.3523 24.7354V50.2879C26.0672 59.5437 17.3123 52.2261 17.3123 52.2261C17.3123 52.2261 12.8426 48.7452 13.8051 44.5524C13.8051 44.5524 8.03011 44.3678 6.88301 38.8565C5.7491 33.3583 7.67411 28.8095 7.67411 28.8095C7.67411 28.8095 8.90032 25.4737 10.5616 23.6806C12.2229 21.8874 14.939 20.4634 14.939 20.4634C14.939 20.4634 13.4491 13.0402 17.6552 10.4164C21.8612 7.79262 30.3523 10.7724 30.3523 10.7724V24.7354Z" fill="#F6CE8D"/>
<path d="M24.1155 55.2982C20.5292 55.2982 17.2593 52.6084 17.1011 52.4766C16.9297 52.3447 12.7369 49.0221 13.4225 44.8425C12.0776 44.6843 7.58155 43.7745 6.57949 38.9224C5.44558 33.4506 7.26511 28.9677 7.38377 28.6909C7.46288 28.4667 8.6759 25.2496 10.3372 23.4564C11.7612 21.9138 13.9103 20.6612 14.596 20.292C14.3718 18.9471 13.5412 12.6183 17.4967 10.1395C21.7818 7.46299 30.1279 10.3373 30.4707 10.456L30.6949 10.5351V50.3406L30.6685 50.4065C29.4423 53.0567 27.7282 54.6521 25.5791 55.1268C25.078 55.2586 24.5902 55.2982 24.1155 55.2982ZM22.3487 9.67807C20.6874 9.67807 19.0657 9.94178 17.8395 10.7065C13.8708 13.1853 15.2552 20.3316 15.2684 20.4107L15.3211 20.648L15.097 20.7667C15.0706 20.7798 12.4073 22.1906 10.8119 23.9179C9.21649 25.6451 8.00347 28.9018 7.99028 28.9414V28.9546C7.9771 28.9941 6.11801 33.477 7.22555 38.8037C8.29354 43.9723 13.6071 44.2228 13.8312 44.236L14.2268 44.2492L14.1345 44.6447C13.2247 48.5738 17.4703 51.9492 17.523 51.9756C17.5758 52.0151 21.6368 55.3641 25.434 54.5071C27.359 54.072 28.9017 52.6348 30.0356 50.2088V11.0098C29.1258 10.7329 25.645 9.67807 22.3487 9.67807Z" fill="#F6921E" stroke="#F6921E"/>
<path d="M14.9126 20.9642C14.9126 20.9642 14.5171 20.4764 16.0597 23.0211C17.5892 25.5658 20.4503 25.4735 20.4503 25.4735C20.4503 25.4735 20.3976 22.8101 21.2414 22.6783" fill="#F6CE8D"/>
<path d="M20.3975 25.7902C19.9623 25.7902 17.2858 25.6847 15.7695 23.1796C15.2949 22.3885 14.952 21.8083 14.7543 21.4524C14.5433 21.07 14.4115 20.8327 14.6752 20.6481C14.7675 20.5821 14.9784 20.5294 15.163 20.7404C15.2157 20.8063 15.2421 20.8854 15.2421 20.9513C15.3476 21.1491 15.6113 21.6369 16.3365 22.8236C17.4704 24.6959 19.3558 25.0387 20.1074 25.1046C20.1206 24.1948 20.2656 22.4676 21.1754 22.3226C21.36 22.2962 21.5182 22.4149 21.5445 22.5994C21.5709 22.784 21.4523 22.9423 21.2677 22.9686C20.9776 23.0082 20.7271 24.208 20.7534 25.4342V25.7638L20.4238 25.777C20.4502 25.7902 20.4238 25.7902 20.3975 25.7902Z" fill="#F6921E" stroke="#F6921E"/>
<path d="M20.5166 25.2754C21.0704 27.8992 21.4132 27.741 21.4132 27.741L20.5166 25.2754Z" fill="#F6CE8D"/>
<path d="M21.3999 28.0836C21.3339 28.0836 21.268 28.0705 21.2153 28.0441C21.057 27.965 20.7142 27.7804 20.2 25.3544C20.1605 25.1698 20.2791 24.9984 20.4505 24.9588C20.6219 24.9193 20.8065 25.0379 20.8461 25.2093C21.2021 26.8838 21.4394 27.3321 21.5185 27.4376C21.5976 27.464 21.6767 27.5299 21.7163 27.609C21.7954 27.7804 21.7163 27.965 21.5581 28.0441C21.4921 28.0705 21.4526 28.0836 21.3999 28.0836Z" fill="#F6921E" stroke="#F6921E"/>
<path d="M13.4746 44.7889C22.4932 43.299 22.0317 41.585 22.0317 41.585C22.0317 41.585 23.9567 42.4947 25.3016 42.1651" fill="#F6CE8D"/>
<path d="M13.4749 45.1186C13.3167 45.1186 13.1716 44.9999 13.1453 44.8417C13.1189 44.6571 13.2376 44.4989 13.4221 44.4594C21.2013 43.1804 21.676 41.7696 21.7155 41.6378L21.5441 40.9785L22.1902 41.2818C22.2034 41.295 24.0361 42.1388 25.2359 41.8487C25.4073 41.8092 25.5919 41.9147 25.6315 42.0861C25.671 42.2575 25.5655 42.4421 25.3941 42.4816C24.313 42.7453 22.9153 42.2838 22.2693 42.0333C22.2561 42.0597 22.2429 42.0861 22.2165 42.1124C21.7023 42.9035 19.7905 44.0638 13.5408 45.1054C13.5013 45.1186 13.4881 45.1186 13.4749 45.1186Z" fill="#F6921E" stroke="#F6921E"/>
<path d="M22.0189 41.5985C19.672 39.2515 20.0543 38.6055 20.0543 38.6055L22.0189 41.5985Z" fill="#F6CE8D"/>
<path d="M22.0188 41.9281C21.9397 41.9281 21.8474 41.9017 21.7815 41.8358C19.5137 39.5548 19.606 38.711 19.7642 38.4473C19.8565 38.2891 20.0543 38.2363 20.2125 38.3286C20.3575 38.4077 20.4103 38.5791 20.3575 38.7242C20.3575 38.8033 20.3839 39.4889 22.2562 41.3612C22.388 41.493 22.388 41.704 22.2562 41.8226C22.1902 41.9018 22.1111 41.9281 22.0188 41.9281Z" fill="#F6921E" stroke="#F6921E"/>
<path d="M18.7363 15.2954C18.7363 15.2954 21.7425 11.274 24.9728 12.5002L18.7363 15.2954Z" fill="#F6CE8D"/>
<path d="M18.7361 15.6248C18.6701 15.6248 18.6042 15.5984 18.5383 15.5588C18.3933 15.4534 18.3669 15.2424 18.4724 15.0974C18.6042 14.926 21.6631 10.8913 25.0912 12.1835C25.2626 12.2494 25.3417 12.434 25.289 12.6054C25.2231 12.7768 25.0385 12.8559 24.8671 12.8032C21.9005 11.6825 19.0393 15.4534 18.9998 15.4929C18.9338 15.5852 18.8415 15.6248 18.7361 15.6248Z" fill="#F6921E" stroke="#F6921E"/>
<path d="M13.1853 35.0855C13.1853 35.0855 10.0736 32.7649 11.0229 30.2598L13.1853 35.0855Z" fill="#F6CE8D"/>
<path d="M13.1853 35.4147C13.1193 35.4147 13.0534 35.3883 12.9875 35.3488C12.8556 35.2433 9.67806 32.8436 10.7065 30.1407C10.7724 29.9693 10.957 29.8902 11.1284 29.9429C11.2998 30.0088 11.3789 30.1934 11.3262 30.3648C10.4823 32.6063 13.3567 34.795 13.383 34.8214C13.5281 34.9268 13.5544 35.1378 13.449 35.2828C13.383 35.3619 13.2907 35.4147 13.1853 35.4147Z" fill="#F6921E" stroke="#F6921E"/>
<path d="M30.3521 29.9033C27.6097 32.4348 25.6978 32.2503 25.6978 32.2503L24.9727 31.0768" fill="#F6CE8D"/>
<path d="M25.7772 32.5799C25.7113 32.5799 25.6717 32.5799 25.6585 32.5799L25.5003 32.5667L24.6828 31.2482C24.5905 31.09 24.6301 30.8922 24.7883 30.8C24.9465 30.7077 25.1443 30.7472 25.2366 30.9054L25.8695 31.9207C26.3573 31.8943 27.9791 31.6306 30.1282 29.6528C30.2601 29.5342 30.471 29.5342 30.5897 29.666C30.7084 29.7979 30.7084 30.0088 30.5765 30.1275C28.0977 32.4217 26.2518 32.5799 25.7772 32.5799Z" fill="#F6921E"/>
<path d="M25.6983 32.251C25.5928 34.2024 24.9863 34.3738 24.9863 34.3738L25.6983 32.251Z" fill="#F6CE8D"/>
<path d="M24.973 34.7029C24.828 34.7029 24.6961 34.6106 24.6566 34.4656C24.617 34.2942 24.6961 34.136 24.8543 34.07C24.8939 34.0437 25.2763 33.7536 25.3554 32.2373C25.3686 32.0527 25.5136 31.9209 25.6982 31.9209C25.8828 31.9341 26.0146 32.0923 26.0146 32.2637C25.9091 34.2942 25.2499 34.637 25.0521 34.6897C25.0389 34.7029 25.0126 34.7029 24.973 34.7029Z" fill="#F6921E"/>
<path d="M33.8057 24.7354V50.2879C38.0908 59.5437 46.8456 52.2261 46.8456 52.2261C46.8456 52.2261 51.3154 48.7452 50.3528 44.5524C50.3528 44.5524 56.1279 44.3678 57.275 38.8565C58.4089 33.3583 56.4839 28.8095 56.4839 28.8095C56.4839 28.8095 55.2577 25.4737 53.5964 23.6806C51.935 21.8874 49.2189 20.4634 49.2189 20.4634C49.2189 20.4634 50.7088 13.0402 46.5028 10.4164C42.2968 7.79262 33.8057 10.7724 33.8057 10.7724V24.7354Z" fill="#F6CE8D"/>
<path d="M40.0427 55.2977C39.568 55.2977 39.0802 55.245 38.5923 55.1395C36.4432 54.6516 34.7291 53.0694 33.5029 50.4192L33.4766 50.3533V10.5478L33.7007 10.4687C34.0567 10.35 42.3896 7.47569 46.6748 10.1522C50.6303 12.631 49.8128 18.9598 49.5755 20.3047C50.2611 20.6871 52.397 21.9396 53.8342 23.4691C55.4955 25.2623 56.7085 28.4794 56.7876 28.7035C56.9063 28.9804 58.7258 33.4633 57.5919 38.9351C56.5899 43.774 52.0938 44.6838 50.7489 44.8552C51.4214 49.0216 47.2417 52.3443 47.0571 52.4893C46.8989 52.608 43.6422 55.2977 40.0427 55.2977ZM34.1358 50.2083C35.2697 52.6211 36.8256 54.0715 38.7374 54.5066C42.5347 55.3636 46.5956 52.0146 46.6352 51.9751C46.6879 51.9355 50.9335 48.5602 50.0237 44.631L49.9314 44.2355L50.327 44.2223C50.5511 44.2091 55.8647 43.9718 56.9327 38.7901C58.0402 33.4633 56.1811 28.9804 56.168 28.9409V28.9277C56.1548 28.9013 54.9417 25.6314 53.3464 23.9042C51.7378 22.177 49.0876 20.7662 49.0612 20.753L48.8371 20.6343L48.8898 20.397C48.903 20.3311 50.2874 13.1716 46.3188 10.6928C42.6665 8.41183 35.4807 10.561 34.1226 10.9961V50.2083H34.1358Z" fill="#F6921E" stroke="#F6921E"/>
<path d="M49.2458 20.9633C49.2458 20.9633 49.6413 20.4754 48.0987 23.0201C46.5692 25.5648 43.7081 25.4725 43.7081 25.4725C43.7081 25.4725 43.7608 22.8092 42.917 22.6773" fill="#F6CE8D"/>
<path d="M43.7611 25.7893C43.7347 25.7893 43.7084 25.7893 43.7084 25.7893L43.3787 25.7761V25.4465C43.4051 24.2203 43.1546 23.0205 42.8645 22.9809C42.6799 22.9545 42.5613 22.7831 42.5876 22.6117C42.614 22.4271 42.7854 22.3085 42.9568 22.3348C43.8666 22.4667 44.0116 24.2071 44.0248 25.1169C44.7764 25.0641 46.6618 24.7213 47.7957 22.8359C48.7846 21.2009 48.9296 20.8977 48.9428 20.8449C48.9164 20.9372 48.9296 21.1086 49.0878 21.2009C49.2461 21.2932 49.4175 21.2273 49.4702 21.1614L48.956 20.7395C49.1406 20.5153 49.3515 20.5681 49.4438 20.6472C49.7075 20.8318 49.5757 21.0823 49.3647 21.4515C49.167 21.8074 48.8241 22.3876 48.3495 23.1787C46.8728 25.6838 44.1962 25.7893 43.7611 25.7893Z" fill="#F6921E" stroke="#F6921E"/>
<path d="M43.6427 25.2754C43.0889 27.8992 42.7461 27.741 42.7461 27.741L43.6427 25.2754Z" fill="#F6CE8D"/>
<path d="M42.7593 28.0838C42.7066 28.0838 42.6538 28.0706 42.6143 28.0574C42.4429 27.9783 42.377 27.7805 42.4561 27.6223C42.4956 27.53 42.5615 27.4773 42.6538 27.4509C42.733 27.3454 42.9835 26.8971 43.3263 25.2227C43.3658 25.0381 43.5372 24.9326 43.7218 24.9721C43.9064 25.0117 44.0119 25.1831 43.9723 25.3677C43.4581 27.7937 43.1021 27.9783 42.9571 28.0574C42.8912 28.0574 42.8252 28.0838 42.7593 28.0838Z" fill="#F6921E" stroke="#F6921E"/>
<path d="M50.6834 44.7899C41.6649 43.3 42.1263 41.5859 42.1263 41.5859C42.1263 41.5859 40.2013 42.4957 38.8564 42.1661" fill="#F6CE8D"/>
<path d="M50.6834 45.1191C50.6702 45.1191 50.6438 45.1191 50.6306 45.1191C44.3809 44.0907 42.4691 42.9304 41.9549 42.1261C41.9417 42.0997 41.9153 42.0734 41.9022 42.047C41.2561 42.3107 39.8585 42.7722 38.7773 42.4953C38.6059 42.4557 38.4872 42.2711 38.54 42.0997C38.5795 41.9283 38.7641 41.8097 38.9355 41.8624C40.1354 42.1656 41.9681 41.3086 41.9813 41.2954L42.6273 40.9922L42.4559 41.6514C42.4823 41.7833 42.9702 43.1941 50.7493 44.473C50.9339 44.4994 51.0526 44.6708 51.0262 44.8554C50.9866 45.0004 50.8416 45.1191 50.6834 45.1191Z" fill="#F6921E" stroke="#F6921E"/>
<path d="M42.1396 41.5994C44.4866 39.2525 44.1042 38.6064 44.1042 38.6064L42.1396 41.5994Z" fill="#F6CE8D"/>
<path d="M42.1399 41.9286C42.0608 41.9286 41.9685 41.9022 41.9026 41.8363C41.7707 41.7045 41.7707 41.4935 41.9026 41.3748C43.7617 39.5026 43.8012 38.8169 43.8012 38.7378C43.7485 38.5928 43.8012 38.4214 43.9463 38.3423C44.1045 38.25 44.3023 38.3027 44.3946 38.461C44.5396 38.7247 44.6451 39.5685 42.3773 41.8495C42.3113 41.9022 42.219 41.9286 42.1399 41.9286Z" fill="#F6921E" stroke="#F6921E"/>
<path d="M45.4221 15.2944C45.4221 15.2944 42.4159 11.273 39.1855 12.4992L45.4221 15.2944Z" fill="#F6CE8D"/>
<path d="M45.422 15.6239C45.3165 15.6239 45.2242 15.5844 45.1583 15.4921C45.1319 15.4525 42.2708 11.6816 39.291 12.8024C39.1196 12.8683 38.935 12.776 38.869 12.6046C38.8031 12.4332 38.8954 12.2486 39.0668 12.1827C42.4949 10.8773 45.567 14.9251 45.6857 15.0965C45.7912 15.2416 45.7648 15.4525 45.6198 15.558C45.567 15.6108 45.4879 15.6239 45.422 15.6239Z" fill="#F6921E" stroke="#F6921E"/>
<path fill-rule="evenodd" clip-rule="evenodd" d="M52.8504 29.4766C53.3037 29.3023 53.763 29.5573 53.9185 29.9616L53.9191 29.9632L53.9191 29.9633C54.5218 31.5472 53.8735 33.0092 53.1529 34.0152C52.4278 35.0276 51.5535 35.6915 51.4575 35.7587L51.4431 35.7688L51.428 35.7779C51.3285 35.8376 51.17 35.9151 50.973 35.9151C50.727 35.9151 50.4747 35.8138 50.3036 35.5755C50.0508 35.2259 50.0973 34.7055 50.4707 34.4251C50.4835 34.4143 50.4983 34.4021 50.5148 34.3884C50.7286 34.2109 51.2432 33.7838 51.7287 33.1307C52.3158 32.3412 52.6931 31.4226 52.3644 30.542C52.1921 30.0896 52.4469 29.6318 52.8504 29.4766Z" fill="#F6921E"/>
<path d="M33.8066 29.9043C36.5491 32.4358 38.4609 32.2512 38.4609 32.2512L39.1861 31.0778" fill="#F6CE8D"/>
<path d="M38.3816 32.5807C37.907 32.5807 36.0611 32.4224 33.5823 30.1414C33.4504 30.0228 33.4373 29.8118 33.5691 29.68C33.6878 29.5481 33.8987 29.5349 34.0306 29.6668C36.1929 31.6577 37.8015 31.9082 38.2761 31.9346L38.909 30.9193C39.0013 30.7611 39.2123 30.7216 39.3573 30.8139C39.5155 30.9062 39.5551 31.1171 39.4628 31.2622L38.6453 32.5807L38.4871 32.5938C38.4871 32.5806 38.4476 32.5807 38.3816 32.5807Z" fill="#F6921E"/>
<path d="M38.46 32.25C38.5654 34.2014 39.172 34.3728 39.172 34.3728L38.46 32.25Z" fill="#F6CE8D"/>
<path d="M39.1855 34.7028C39.1591 34.7028 39.1328 34.7028 39.0932 34.6896C38.8954 34.6369 38.2362 34.3072 38.1307 32.2636C38.1175 32.079 38.2626 31.9208 38.4472 31.9208C38.6317 31.9076 38.79 32.0526 38.79 32.2372C38.8691 33.7403 39.2646 34.0567 39.2646 34.0567C39.436 34.1095 39.5415 34.2809 39.502 34.4655C39.4624 34.6105 39.3306 34.7028 39.1855 34.7028Z" fill="#F6921E"/>
<path d="M40.4384 35.1246C41.5328 33.6347 42.3239 31.8019 42.6271 29.7319C43.6424 22.8625 38.9749 16.2305 32.0132 16.2305C25.0515 16.2305 20.384 22.8493 21.3993 29.7319C21.7025 31.8019 22.4936 33.6347 23.588 35.1246C23.9572 35.7443 24.4318 36.4563 25.0252 37.2605C27.2007 40.2272 25.8954 41.638 26.581 42.8246C27.2534 43.9717 29.0202 44.5782 29.0202 44.5782H31.3803H32.6593H35.0062C35.0062 44.5782 36.7862 43.9717 37.4454 42.8246C38.1442 41.638 36.8257 40.2272 39.0013 37.2605C39.5946 36.4563 40.0693 35.7443 40.4384 35.1246Z" fill="white"/>
<path d="M35.5735 48.7179H28.6909C28.6777 48.7179 28.6777 48.7047 28.6777 48.7047V47.4917C28.6777 47.4785 28.6909 47.4785 28.6909 47.4785H35.5735C35.5867 47.4785 35.5867 47.4917 35.5867 47.4917V48.7047C35.5867 48.7047 35.5867 48.7179 35.5735 48.7179Z" fill="#333333"/>
<path d="M35.9554 46.7404H28.229C28.2158 46.7404 28.2158 46.7272 28.2158 46.7272V45.5142C28.2158 45.501 28.229 45.501 28.229 45.501H35.9554C35.9686 45.501 35.9686 45.5142 35.9686 45.5142V46.7272C35.9818 46.7404 35.9686 46.7404 35.9554 46.7404Z" fill="#333333"/>
<path d="M34.7686 50.63H29.4419C29.4287 50.63 29.4287 50.6168 29.4287 50.6168V49.4038C29.4287 49.3906 29.4419 49.3906 29.4419 49.3906H34.7686C34.7818 49.3906 34.7818 49.4038 34.7818 49.4038V50.6168C34.7818 50.63 34.7686 50.63 34.7686 50.63Z" fill="#333333"/>
<path d="M18.1028 48.231C18.0896 48.2179 18.0764 48.2047 18.0632 48.1915C17.9841 48.0728 18.0237 47.9278 18.1292 47.8487C18.7357 47.4399 19.54 47.3608 20.2256 47.6377C20.9508 47.9278 21.4386 48.5343 21.9133 49.1276C22.0188 49.2595 22.1242 49.3913 22.2297 49.51C22.823 50.2088 23.4032 50.6703 24.0361 50.9208C24.7744 51.2109 25.5919 51.1713 26.1588 50.8153C26.7917 50.4197 27.095 49.6287 26.884 49.009C26.8445 48.8771 26.9104 48.7453 27.029 48.6925C27.1609 48.653 27.2927 48.7189 27.3455 48.8375C27.6487 49.6814 27.2532 50.7098 26.4225 51.224C25.7105 51.6723 24.748 51.7251 23.8515 51.3691C23.1395 51.0922 22.4802 50.5911 21.8473 49.8264C21.7419 49.6946 21.6364 49.5627 21.5309 49.4309C21.0826 48.8639 20.6475 48.3233 20.041 48.086C19.5004 47.875 18.8675 47.941 18.3929 48.2574C18.3138 48.3233 18.1819 48.3101 18.1028 48.231Z" fill="#F6921E"/>
<path d="M25.0514 51.672C24.6558 51.672 24.2471 51.5929 23.8515 51.4347C23.1264 51.1578 22.4671 50.6436 21.8079 49.8657C21.7024 49.7338 21.5969 49.602 21.4914 49.4701C21.0431 48.9164 20.6212 48.389 20.0411 48.1516C19.5269 47.9538 18.9204 48.0066 18.4589 48.3098C18.327 48.3889 18.1688 48.3758 18.0501 48.2703C18.037 48.2571 18.0238 48.2307 18.0106 48.2175C17.9183 48.0725 17.9578 47.8615 18.1029 47.7693C18.7358 47.3473 19.5664 47.2682 20.2784 47.5451C21.03 47.8484 21.5178 48.4681 22.0056 49.0614C22.1111 49.1932 22.2166 49.3251 22.3089 49.4437C22.889 50.1294 23.4692 50.5777 24.0889 50.8282C24.8009 51.1051 25.592 51.0655 26.1457 50.7227C26.7391 50.3535 27.0423 49.602 26.8314 49.0086C26.7654 48.8372 26.8577 48.6527 27.0291 48.5999C27.1082 48.5735 27.2005 48.5735 27.2796 48.6131C27.3588 48.6527 27.4115 48.7186 27.451 48.7977C27.7675 49.6811 27.3588 50.7491 26.5017 51.2765C26.0666 51.5402 25.5656 51.672 25.0514 51.672ZM19.4082 47.8879C19.6455 47.8879 19.8697 47.9275 20.0938 48.0198C20.7267 48.2703 21.1618 48.8109 21.6101 49.391C21.7156 49.5229 21.8211 49.6547 21.9265 49.7866C22.5594 50.5381 23.2055 51.0391 23.9043 51.3028C24.7745 51.6457 25.7106 51.5929 26.3962 51.1578C27.1873 50.6568 27.5697 49.6811 27.2796 48.8636C27.2665 48.8241 27.2401 48.7845 27.2005 48.7713C27.161 48.7581 27.1214 48.7449 27.0687 48.7713C26.9896 48.7977 26.9368 48.89 26.9632 48.9823C27.2005 49.6415 26.8709 50.4722 26.2117 50.8809C25.6183 51.2501 24.7745 51.3028 24.0098 50.9996C23.3637 50.7491 22.7572 50.2876 22.1639 49.5756C22.0584 49.4569 21.9529 49.3251 21.8474 49.1932C21.3859 48.6131 20.8981 48.0066 20.1861 47.7297C19.5269 47.466 18.7489 47.5451 18.1556 47.9407C18.0765 47.9934 18.0633 48.0989 18.1029 48.1648C18.1161 48.178 18.1161 48.178 18.1293 48.1912C18.182 48.2439 18.2743 48.2571 18.3402 48.2044C18.6698 47.9934 19.039 47.8879 19.4082 47.8879Z" fill="#F6921E" stroke="#F6921E"/>
<path d="M38.3947 51.7901C38.3815 51.7901 38.3552 51.7901 38.342 51.7901C38.2101 51.7638 38.131 51.6319 38.1574 51.5001C38.3024 50.7881 38.8166 50.1552 39.4891 49.8651C40.2143 49.5487 40.9922 49.641 41.7437 49.7201C41.9019 49.7333 42.0733 49.7596 42.2316 49.7728C43.1413 49.8519 43.8797 49.7597 44.4994 49.4828C45.2246 49.1663 45.7783 48.5598 45.9234 47.9006C46.0948 47.1754 45.752 46.3975 45.1455 46.1074C45.0268 46.0547 44.974 45.9096 45.0268 45.7778C45.0795 45.6591 45.2246 45.6064 45.3564 45.6591C46.1739 46.0415 46.6222 47.0567 46.398 48.0061C46.2134 48.8235 45.5674 49.5355 44.6972 49.9311C43.9984 50.2343 43.1809 50.3398 42.192 50.2607C42.0206 50.2475 41.8492 50.2211 41.691 50.2079C40.9658 50.1288 40.2934 50.0497 39.6869 50.3134C39.1595 50.5376 38.7507 51.0386 38.6452 51.6055C38.6057 51.711 38.5134 51.7901 38.3947 51.7901Z" fill="#F6921E"/>
<path d="M38.3944 51.8696C38.368 51.8696 38.3548 51.8696 38.3285 51.8564C38.1571 51.8169 38.0384 51.6454 38.0779 51.474C38.2362 50.7357 38.7636 50.0764 39.4624 49.7864C40.2007 49.4699 40.9918 49.549 41.7566 49.6413C41.9148 49.6545 42.0862 49.6809 42.2444 49.6941C43.141 49.7732 43.8662 49.6809 44.4727 49.4172C45.1715 49.1139 45.7121 48.5206 45.8571 47.8877C46.0153 47.2021 45.6989 46.4637 45.1319 46.1869C45.0528 46.1473 45.0001 46.0814 44.9605 46.0023C44.9342 45.9232 44.9341 45.8309 44.9737 45.7517C45.0528 45.5935 45.2374 45.5144 45.4088 45.5935C46.2527 45.9891 46.7141 47.0439 46.49 48.0196C46.2922 48.8634 45.633 49.6018 44.7364 49.9973C44.0244 50.3138 43.1937 50.4193 42.1917 50.327C42.0203 50.3138 41.8489 50.2874 41.6906 50.2742C40.9787 50.1951 40.3062 50.116 39.7261 50.3665C39.225 50.5906 38.8427 51.0521 38.724 51.5927C38.6845 51.7641 38.5526 51.8696 38.3944 51.8696ZM40.6754 49.7204C40.2798 49.7204 39.8843 49.7732 39.5151 49.9314C38.8691 50.2083 38.368 50.8148 38.223 51.5136C38.2098 51.6059 38.2625 51.685 38.3548 51.7114C38.368 51.7114 38.3812 51.7114 38.3944 51.7114C38.4735 51.7114 38.5394 51.6586 38.5526 51.5795C38.6713 50.9862 39.0932 50.472 39.647 50.2347C40.2667 49.971 40.9523 50.0501 41.6906 50.1292C41.862 50.1424 42.0203 50.1687 42.1917 50.1819C43.1674 50.261 43.9848 50.1556 44.6705 49.8655C45.5275 49.4963 46.1472 48.7975 46.3318 47.9932C46.5427 47.0834 46.1208 46.1077 45.3429 45.7386C45.2638 45.699 45.1583 45.7386 45.1187 45.8177C45.1056 45.8572 45.0924 45.8968 45.1187 45.9495C45.1319 45.9891 45.1583 46.0286 45.1979 46.0418C45.8307 46.3451 46.1867 47.1625 46.0153 47.9141C45.8571 48.5997 45.2901 49.2194 44.5386 49.549C43.9057 49.8259 43.1542 49.9182 42.2312 49.8391C42.073 49.8259 41.9016 49.8127 41.7434 49.7864C41.3742 49.76 41.0314 49.7204 40.6754 49.7204Z" fill="#F6921E" stroke="#F6921E"/>
<path d="M21.3859 33.002C21.3859 33.002 21.3859 33.0152 21.3859 33.002C21.5046 33.1338 21.5046 33.3316 21.3859 33.4503C21.2672 33.569 21.1618 33.714 21.0431 33.8722C20.7794 34.2282 20.4893 34.6369 19.9751 34.6897C19.4345 34.7556 19.0126 34.3864 18.6698 34.0964L18.6171 34.0568C17.5754 33.1602 16.2438 32.6328 14.8857 32.5405C14.7143 32.5273 14.5825 32.3823 14.5956 32.2109C14.6088 32.0395 14.7539 31.9076 14.9253 31.9208C16.4284 32.0131 17.8787 32.6064 19.0258 33.5821L19.0785 33.6217C19.3554 33.859 19.6323 34.0963 19.9092 34.07C20.1597 34.0436 20.3443 33.7931 20.5553 33.503C20.6871 33.3316 20.8058 33.147 20.9772 33.002C21.0695 32.8833 21.2672 32.8833 21.3859 33.002Z" fill="#F6921E"/>
<path d="M19.8299 34.7818C19.3157 34.7818 18.9201 34.439 18.6037 34.1621L18.551 34.1225C17.5225 33.2391 16.2172 32.7117 14.8592 32.6195C14.6482 32.6063 14.4768 32.4217 14.49 32.2107C14.5032 31.9998 14.6877 31.8283 14.8987 31.8415C16.415 31.9338 17.8917 32.5403 19.0388 33.5292L19.0915 33.5688C19.3552 33.7929 19.6189 34.0303 19.8563 33.9907C20.0672 33.9643 20.2518 33.727 20.4496 33.4501C20.5814 33.2787 20.7133 33.0941 20.8715 32.9359C21.0297 32.7909 21.2671 32.7909 21.4121 32.9491L21.4253 32.9623C21.4912 33.0414 21.5308 33.1337 21.5308 33.2392C21.5308 33.3446 21.4912 33.4369 21.4121 33.516C21.2934 33.6215 21.188 33.7666 21.0825 33.9248C20.8188 34.294 20.5023 34.7159 19.9486 34.7818C19.9222 34.7818 19.8826 34.7818 19.8299 34.7818ZM14.8987 32.0129C14.78 32.0129 14.6746 32.1052 14.6746 32.2239C14.6614 32.3558 14.7669 32.4612 14.8855 32.4744C16.2699 32.5667 17.6148 33.1073 18.6696 34.0039L18.7224 34.0434C19.052 34.3203 19.4607 34.6763 19.9617 34.6104C20.4496 34.5576 20.7265 34.1621 20.977 33.8193C21.0957 33.6611 21.2011 33.5029 21.333 33.3842C21.3725 33.3446 21.3989 33.2787 21.3989 33.226C21.3989 33.16 21.3725 33.1073 21.333 33.0677L21.3857 33.0018L21.333 33.0546C21.2407 32.9623 21.1088 32.9623 21.0165 33.0546C20.8583 33.1996 20.7265 33.3842 20.6078 33.5424C20.3837 33.8457 20.1859 34.1094 19.909 34.1489C19.6058 34.1885 19.3157 33.9248 19.0256 33.6874L18.9729 33.6479C17.839 32.6854 16.4018 32.0921 14.9251 31.9998C14.8987 32.0129 14.8987 32.0129 14.8987 32.0129Z" fill="#F6921E" stroke="#F6921E"/>
</svg>
