<svg width="96" height="96" viewBox="0 0 96 96" fill="none" xmlns="http://www.w3.org/2000/svg">
<path d="M96 48C96 61.3103 90.581 73.335 81.8393 82.0371C81.2658 82.6106 80.6526 83.1842 80.0593 83.7182C71.555 91.3523 60.3214 96 48 96C35.6786 96 24.445 91.3523 15.9407 83.7182C15.3276 83.1644 14.7342 82.6106 14.1607 82.0371C14.1211 81.9975 14.1014 81.9778 14.0618 81.9382C5.37948 73.2559 0 61.2509 0 48C0 21.4982 21.4784 0 48 0C61.2509 0 73.2559 5.3795 81.9382 14.0618C90.6205 22.7441 96 34.7491 96 48Z" fill="white"/>
<path d="M88 48C88 59.0919 83.4841 69.1125 76.1994 76.3642C75.7215 76.8422 75.2105 77.3202 74.7161 77.7651C67.6292 84.1269 58.2678 88 48 88C37.7322 88 28.3708 84.1269 21.2839 77.7651C20.773 77.3037 20.2785 76.8422 19.8006 76.3642C19.7676 76.3313 19.7511 76.3148 19.7182 76.2818C12.4829 69.0466 8 59.0424 8 48C8 25.9151 25.8986 8 48 8C59.0424 8 69.0466 12.4829 76.2818 19.7182C83.5171 26.9535 88 36.9576 88 48Z" fill="white"/>
<path d="M84.4895 48C84.4895 68.1566 68.1566 84.4895 48 84.4895C37.9299 84.4895 28.7993 80.4021 22.1903 73.8096C15.5814 67.2006 11.5105 58.0865 11.5105 48C11.5105 27.8434 27.8434 11.5105 48 11.5105C58.07 11.5105 67.2006 15.5979 73.8096 22.1904C80.4021 28.7993 84.4895 37.9299 84.4895 48Z" fill="white"/>
<path d="M45.9399 38.9186V70.8592C40.5835 82.4291 29.6399 73.282 29.6399 73.282C29.6399 73.282 24.0528 68.9309 25.2559 63.6899C25.2559 63.6899 18.0371 63.4592 16.6033 56.57C15.1859 49.6973 17.5922 44.0113 17.5922 44.0113C17.5922 44.0113 19.1249 39.8415 21.2015 37.6001C23.2782 35.3586 26.6733 33.5787 26.6733 33.5787C26.6733 33.5787 24.8109 24.2997 30.0685 21.0199C35.326 17.7402 45.9399 21.4649 45.9399 21.4649V38.9186Z" fill="#F6CE8D"/>
<path d="M38.1443 77.1227C33.6614 77.1227 29.574 73.7605 29.3762 73.5957C29.162 73.4309 23.9209 69.2777 24.778 64.0531C23.0969 63.8553 17.4768 62.7181 16.2242 56.653C14.8068 49.8133 17.0812 44.2097 17.2296 43.8636C17.3284 43.5834 18.8447 39.5619 20.9214 37.3205C22.7013 35.3922 25.3878 33.8265 26.2448 33.365C25.9646 31.6839 24.9263 23.7729 29.8707 20.6744C35.2271 17.3287 45.6597 20.9217 46.0882 21.07L46.3684 21.1689V70.9258L46.3355 71.0082C44.8027 74.3209 42.6601 76.3152 39.9737 76.9085C39.3474 77.0733 38.7376 77.1227 38.1443 77.1227ZM35.9358 20.0976C33.8591 20.0976 31.832 20.4272 30.2992 21.3831C25.3383 24.4816 27.0689 33.4144 27.0853 33.5133L27.1513 33.81L26.8711 33.9583C26.8381 33.9748 23.5089 35.7383 21.5147 37.8973C19.5205 40.0564 18.0042 44.1273 17.9877 44.1767V44.1932C17.9712 44.2426 15.6474 49.8463 17.0318 56.5047C18.3668 62.9653 25.0087 63.2785 25.2889 63.2949L25.7833 63.3114L25.668 63.8059C24.5308 68.7173 29.8377 72.9365 29.9036 72.9695C29.9696 73.0189 35.0458 77.2051 39.7924 76.1338C42.1987 75.59 44.127 73.7935 45.5444 70.761V21.7622C44.4071 21.4161 40.0561 20.0976 35.9358 20.0976Z" fill="#F6921E" stroke="#F6921E"/>
<path d="M26.6403 34.2052C26.6403 34.2052 26.1459 33.5954 28.0742 36.7763C29.986 39.9571 33.5624 39.8418 33.5624 39.8418C33.5624 39.8418 33.4965 36.5125 34.5513 36.3477" fill="#F6CE8D"/>
<path d="M33.4965 40.2375C32.9526 40.2375 29.6069 40.1057 27.7116 36.9742C27.1182 35.9854 26.6897 35.2602 26.4425 34.8152C26.1788 34.3372 26.014 34.0406 26.3436 33.8098C26.459 33.7274 26.7227 33.6615 26.9534 33.9252C27.0193 34.0076 27.0523 34.1065 27.0523 34.1889C27.1842 34.4361 27.5138 35.0459 28.4203 36.5293C29.8376 38.8696 32.1945 39.2981 33.1339 39.3805C33.1504 38.2433 33.3317 36.0843 34.4689 35.903C34.6996 35.87 34.8974 36.0183 34.9303 36.2491C34.9633 36.4798 34.815 36.6776 34.5842 36.7105C34.2217 36.76 33.9085 38.2598 33.9415 39.7925V40.2046L33.5294 40.221C33.5624 40.2375 33.5294 40.2375 33.4965 40.2375Z" fill="#F6921E" stroke="#F6921E"/>
<path d="M33.6449 39.595C34.3371 42.8747 34.7656 42.677 34.7656 42.677L33.6449 39.595Z" fill="#F6CE8D"/>
<path d="M34.7491 43.105C34.6667 43.105 34.5843 43.0886 34.5183 43.0556C34.3206 42.9567 33.8921 42.726 33.2493 39.6934C33.1998 39.4627 33.3482 39.2484 33.5624 39.199C33.7767 39.1496 34.0074 39.2979 34.0569 39.5121C34.5019 41.6053 34.7985 42.1656 34.8974 42.2975C34.9963 42.3304 35.0952 42.4128 35.1446 42.5117C35.2435 42.726 35.1446 42.9567 34.9469 43.0556C34.8645 43.0886 34.815 43.105 34.7491 43.105Z" fill="#F6921E" stroke="#F6921E"/>
<path d="M24.8439 63.9868C36.1171 62.1244 35.5402 59.9818 35.5402 59.9818C35.5402 59.9818 37.9465 61.119 39.6276 60.707" fill="#F6CE8D"/>
<path d="M24.8438 64.3989C24.646 64.3989 24.4648 64.2505 24.4318 64.0528C24.3988 63.822 24.5472 63.6243 24.7779 63.5748C34.5018 61.9761 35.0952 60.2126 35.1446 60.0478L34.9303 59.2238L35.7379 59.6028C35.7544 59.6193 38.0453 60.6741 39.5451 60.3115C39.7594 60.2621 39.9901 60.3939 40.0395 60.6082C40.089 60.8224 39.9571 61.0532 39.7429 61.1026C38.3914 61.4322 36.6444 60.8554 35.8368 60.5423C35.8203 60.5752 35.8039 60.6082 35.7709 60.6411C35.1281 61.63 32.7383 63.0804 24.9262 64.3824C24.8768 64.3989 24.8603 64.3989 24.8438 64.3989Z" fill="#F6921E" stroke="#F6921E"/>
<path d="M35.5237 59.9982C32.5901 57.0645 33.068 56.257 33.068 56.257L35.5237 59.9982Z" fill="#F6CE8D"/>
<path d="M35.5237 60.4105C35.4248 60.4105 35.3095 60.3776 35.227 60.2952C32.3923 57.4439 32.5076 56.3891 32.7054 56.0595C32.8208 55.8617 33.068 55.7958 33.2658 55.9111C33.4471 56.01 33.513 56.2243 33.4471 56.4056C33.4471 56.5045 33.48 57.3615 35.8204 59.7018C35.9852 59.8666 35.9852 60.1303 35.8204 60.2787C35.738 60.3776 35.6391 60.4105 35.5237 60.4105Z" fill="#F6921E" stroke="#F6921E"/>
<path d="M31.4199 27.1184C31.4199 27.1184 35.1776 22.0916 39.2156 23.6244L31.4199 27.1184Z" fill="#F6CE8D"/>
<path d="M31.4199 27.5303C31.3375 27.5303 31.2551 27.4974 31.1727 27.4479C30.9914 27.3161 30.9584 27.0524 31.0903 26.8711C31.2551 26.6568 35.0788 21.6136 39.3639 23.2287C39.5781 23.3111 39.677 23.5419 39.6111 23.7562C39.5287 23.9704 39.298 24.0693 39.0837 24.0034C35.3754 22.6025 31.799 27.3161 31.7495 27.3655C31.6671 27.4809 31.5518 27.5303 31.4199 27.5303Z" fill="#F6921E" stroke="#F6921E"/>
<path d="M24.4813 51.8565C24.4813 51.8565 20.5917 48.9558 21.7784 45.8243L24.4813 51.8565Z" fill="#F6CE8D"/>
<path d="M24.4813 52.2686C24.3988 52.2686 24.3164 52.2356 24.234 52.1862C24.0692 52.0543 20.0972 49.0548 21.3828 45.6761C21.4652 45.4618 21.6959 45.363 21.9102 45.4289C22.1244 45.5113 22.2233 45.742 22.1574 45.9563C21.1026 48.7581 24.6955 51.494 24.7285 51.5269C24.9098 51.6588 24.9427 51.9225 24.8109 52.1038C24.7285 52.2027 24.6131 52.2686 24.4813 52.2686Z" fill="#F6921E" stroke="#F6921E"/>
<path d="M45.9399 45.3793C42.5118 48.5437 40.122 48.3129 40.122 48.3129L39.2156 46.8461" fill="#F6CE8D"/>
<path d="M40.2209 48.7253C40.1385 48.7253 40.089 48.7253 40.0726 48.7253L39.8748 48.7088L38.853 47.0607C38.7376 46.8629 38.787 46.6157 38.9848 46.5003C39.1826 46.3849 39.4298 46.4344 39.5452 46.6321L40.3363 47.9012C40.9461 47.8683 42.9733 47.5386 45.6597 45.0664C45.8245 44.9181 46.0882 44.9181 46.2366 45.0829C46.3849 45.2477 46.3849 45.5114 46.2201 45.6597C43.1216 48.5275 40.8142 48.7253 40.2209 48.7253Z" fill="#F6921E"/>
<path d="M40.122 48.3132C39.9901 50.7525 39.232 50.9667 39.232 50.9667L40.122 48.3132Z" fill="#F6CE8D"/>
<path d="M39.2155 51.3787C39.0342 51.3787 38.8694 51.2633 38.8199 51.082C38.7705 50.8677 38.8694 50.67 39.0672 50.5876C39.1166 50.5546 39.5946 50.192 39.6934 48.2967C39.7099 48.0659 39.8912 47.9011 40.122 47.9011C40.3527 47.9176 40.5175 48.1154 40.5175 48.3296C40.3857 50.8677 39.5616 51.2963 39.3144 51.3622C39.2979 51.3787 39.2649 51.3787 39.2155 51.3787Z" fill="#F6921E"/>
<path d="M50.2579 38.9191V70.8597C55.6143 82.4296 66.5579 73.2825 66.5579 73.2825C66.5579 73.2825 72.145 68.9314 70.9419 63.6904C70.9419 63.6904 78.1607 63.4597 79.5946 56.5705C81.012 49.6978 78.6057 44.0118 78.6057 44.0118C78.6057 44.0118 77.0729 39.842 74.9963 37.6006C72.9197 35.3591 69.5245 33.5791 69.5245 33.5791C69.5245 33.5791 71.3869 24.3002 66.1294 21.0204C60.8719 17.7407 50.2579 21.4654 50.2579 21.4654V38.9191Z" fill="#F6CE8D"/>
<path d="M58.0538 77.1225C57.4604 77.1225 56.8506 77.0566 56.2408 76.9247C53.5544 76.3149 51.4118 74.3371 49.8791 71.0244L49.8461 70.942V21.1851L50.1263 21.0862C50.5713 20.9379 60.9874 17.345 66.3438 20.6907C71.2882 23.7891 70.2664 31.7001 69.9697 33.3812C70.8267 33.8592 73.4967 35.4249 75.2931 37.3367C77.3698 39.5782 78.8861 43.5996 78.985 43.8798C79.1333 44.2259 81.4077 49.8295 79.9903 56.6693C78.7377 62.7179 73.1176 63.8551 71.4365 64.0693C72.2771 69.2774 67.0525 73.4307 66.8218 73.612C66.624 73.7603 62.5531 77.1225 58.0538 77.1225ZM50.6702 70.7607C52.0875 73.7768 54.0323 75.5897 56.4221 76.1336C61.1687 77.2049 66.2449 73.0187 66.2944 72.9692C66.3603 72.9198 71.6673 68.7006 70.5301 63.7891L70.4147 63.2947L70.9091 63.2782C71.1893 63.2617 77.8313 62.9651 79.1662 56.488C80.5507 49.8295 78.2268 44.2259 78.2103 44.1765V44.16C78.1939 44.127 76.6776 40.0397 74.6833 37.8806C72.6726 35.7216 69.3599 33.9581 69.3269 33.9416L69.0468 33.7933L69.1127 33.4966C69.1292 33.4142 70.8597 24.4649 65.8988 21.3664C61.3335 18.5152 52.3512 21.2016 50.6537 21.7455V70.7607H50.6702Z" fill="#F6921E" stroke="#F6921E"/>
<path d="M69.5575 34.2055C69.5575 34.2055 70.0519 33.5957 68.1236 36.7766C66.2118 39.9575 62.6354 39.8421 62.6354 39.8421C62.6354 39.8421 62.7013 36.5129 61.6465 36.3481" fill="#F6CE8D"/>
<path d="M62.7013 40.2375C62.6683 40.2375 62.6354 40.2375 62.6354 40.2375L62.2233 40.221V39.809C62.2563 38.2762 61.9432 36.7764 61.5806 36.727C61.3498 36.694 61.2015 36.4798 61.2345 36.2655C61.2674 36.0348 61.4817 35.8864 61.6959 35.9194C62.8331 36.0842 63.0144 38.2597 63.0309 39.3969C63.9704 39.331 66.3272 38.9025 67.7446 36.5457C68.9806 34.502 69.1619 34.123 69.1784 34.057C69.1455 34.1724 69.1619 34.3867 69.3597 34.502C69.5575 34.6174 69.7717 34.535 69.8377 34.4526L69.1949 33.9252C69.4256 33.645 69.6893 33.7109 69.8047 33.8098C70.1343 34.0406 69.9695 34.3537 69.7058 34.8152C69.4586 35.2602 69.0301 35.9853 68.4368 36.9742C66.5909 40.1056 63.2452 40.2375 62.7013 40.2375Z" fill="#F6921E" stroke="#F6921E"/>
<path d="M62.5529 39.5948C61.8607 42.8746 61.4322 42.6768 61.4322 42.6768L62.5529 39.5948Z" fill="#F6CE8D"/>
<path d="M61.4487 43.1053C61.3828 43.1053 61.3169 43.0889 61.2674 43.0724C61.0532 42.9735 60.9708 42.7263 61.0697 42.5285C61.1191 42.4131 61.2015 42.3472 61.3169 42.3143C61.4158 42.1824 61.7289 41.622 62.1574 39.5289C62.2069 39.2982 62.4211 39.1663 62.6519 39.2158C62.8826 39.2652 63.0144 39.4795 62.965 39.7102C62.3222 42.7428 61.8772 42.9735 61.6959 43.0724C61.6135 43.0724 61.5311 43.1053 61.4487 43.1053Z" fill="#F6921E" stroke="#F6921E"/>
<path d="M71.3539 63.9877C60.0808 62.1254 60.6576 59.9828 60.6576 59.9828C60.6576 59.9828 58.2513 61.12 56.5703 60.708" fill="#F6CE8D"/>
<path d="M71.3539 64.3996C71.3375 64.3996 71.3045 64.3996 71.288 64.3996C63.4759 63.1141 61.0861 61.6637 60.4434 60.6583C60.4269 60.6254 60.3939 60.5924 60.3774 60.5595C59.5698 60.8891 57.8228 61.4659 56.4714 61.1198C56.2571 61.0704 56.1088 60.8397 56.1747 60.6254C56.2242 60.4111 56.4549 60.2628 56.6691 60.3287C58.1689 60.7078 60.4598 59.6365 60.4763 59.62L61.2839 59.241L61.0696 60.065C61.1026 60.2298 61.7124 61.9933 71.4364 63.592C71.6671 63.625 71.8154 63.8392 71.7825 64.07C71.733 64.2513 71.5517 64.3996 71.3539 64.3996Z" fill="#F6921E" stroke="#F6921E"/>
<path d="M60.6741 59.999C63.6077 57.0654 63.1298 56.2578 63.1298 56.2578L60.6741 59.999Z" fill="#F6CE8D"/>
<path d="M60.6741 60.4109C60.5752 60.4109 60.4598 60.3779 60.3774 60.2955C60.2126 60.1307 60.2126 59.867 60.3774 59.7187C62.7013 57.3783 62.7507 56.5213 62.7507 56.4224C62.6848 56.2411 62.7507 56.0269 62.932 55.928C63.1298 55.8126 63.377 55.8785 63.4924 56.0763C63.6737 56.4059 63.8055 57.4607 60.9707 60.312C60.8883 60.3779 60.7729 60.4109 60.6741 60.4109Z" fill="#F6921E" stroke="#F6921E"/>
<path d="M64.778 27.1186C64.778 27.1186 61.0202 22.0918 56.9823 23.6246L64.778 27.1186Z" fill="#F6CE8D"/>
<path d="M64.7779 27.5308C64.6461 27.5308 64.5307 27.4813 64.4483 27.366C64.4153 27.3165 60.8389 22.6029 57.1142 24.0038C56.8999 24.0862 56.6692 23.9708 56.5868 23.7566C56.5043 23.5423 56.6197 23.3116 56.834 23.2292C61.1191 21.5975 64.9592 26.6573 65.1076 26.8715C65.2394 27.0528 65.2064 27.3165 65.0252 27.4484C64.9592 27.5143 64.8603 27.5308 64.7779 27.5308Z" fill="#F6921E" stroke="#F6921E"/>
<path fill-rule="evenodd" clip-rule="evenodd" d="M74.0633 44.8459C74.6299 44.6279 75.204 44.9467 75.3984 45.4521L75.3992 45.4542L75.3992 45.4542C76.1525 47.4341 75.3421 49.2616 74.4414 50.5192C73.535 51.7846 72.4422 52.6145 72.3222 52.6986L72.3042 52.7112L72.2853 52.7225C72.161 52.7971 71.9628 52.8939 71.7166 52.8939C71.4091 52.8939 71.0936 52.7673 70.8798 52.4695C70.5639 52.0325 70.6219 51.382 71.0887 51.0314C71.1047 51.018 71.1231 51.0027 71.1438 50.9856C71.4111 50.7637 72.0542 50.2299 72.6612 49.4135C73.395 48.4267 73.8667 47.2783 73.4558 46.1777C73.2404 45.6121 73.5589 45.0399 74.0633 44.8459Z" fill="#F6921E"/>
<path d="M50.2579 45.3796C53.686 48.544 56.0758 48.3133 56.0758 48.3133L56.9823 46.8465" fill="#F6CE8D"/>
<path d="M55.9769 48.7256C55.3836 48.7256 53.0762 48.5278 49.9778 45.6765C49.813 45.5282 49.7965 45.2645 49.9613 45.0997C50.1096 44.9349 50.3733 44.9184 50.5381 45.0832C53.2411 47.5719 55.2518 47.885 55.8451 47.918L56.6362 46.6489C56.7516 46.4511 57.0153 46.4017 57.1966 46.5171C57.3943 46.6324 57.4438 46.8962 57.3284 47.0774L56.3066 48.7256L56.1088 48.7421C56.1088 48.7256 56.0594 48.7256 55.9769 48.7256Z" fill="#F6921E"/>
<path d="M56.0758 48.3136C56.2077 50.7528 56.9658 50.9671 56.9658 50.9671L56.0758 48.3136Z" fill="#F6CE8D"/>
<path d="M56.9823 51.3791C56.9493 51.3791 56.9164 51.3791 56.8669 51.3626C56.6197 51.2967 55.7956 50.8847 55.6638 48.3301C55.6473 48.0993 55.8286 47.9016 56.0593 47.9016C56.2901 47.8851 56.4879 48.0664 56.4879 48.2971C56.5867 50.1759 57.0812 50.5715 57.0812 50.5715C57.2954 50.6374 57.4273 50.8517 57.3778 51.0824C57.3284 51.2637 57.1636 51.3791 56.9823 51.3791Z" fill="#F6921E"/>
<path d="M58.548 51.9062C59.9159 50.0438 60.9048 47.7529 61.2839 45.1654C62.5529 36.5786 56.7186 28.2886 48.0165 28.2886C39.3144 28.2886 33.48 36.5621 34.7491 45.1654C35.1281 47.7529 36.117 50.0438 37.4849 51.9062C37.9464 52.6808 38.5397 53.5708 39.2814 54.5762C42.0008 58.2845 40.3692 60.0479 41.2262 61.5312C42.0667 62.9651 44.2752 63.7233 44.2752 63.7233H47.2254H48.824H51.7577C51.7577 63.7233 53.9827 62.9651 54.8067 61.5312C55.6802 60.0479 54.0321 58.2845 56.7515 54.5762C57.4932 53.5708 58.0865 52.6808 58.548 51.9062Z" fill="white"/>
<path d="M52.4664 68.8982H43.8632C43.8467 68.8982 43.8467 68.8817 43.8467 68.8817V67.3655C43.8467 67.349 43.8632 67.349 43.8632 67.349H52.4664C52.4829 67.349 52.4829 67.3655 52.4829 67.3655V68.8817C52.4829 68.8817 52.4829 68.8982 52.4664 68.8982Z" fill="#006262"/>
<path d="M52.9444 66.4257H43.2863C43.2699 66.4257 43.2699 66.4092 43.2699 66.4092V64.8929C43.2699 64.8765 43.2863 64.8765 43.2863 64.8765H52.9444C52.9608 64.8765 52.9608 64.8929 52.9608 64.8929V66.4092C52.9773 66.4257 52.9608 66.4257 52.9444 66.4257Z" fill="#006262"/>
<path d="M51.461 71.2878H44.8026C44.7861 71.2878 44.7861 71.2713 44.7861 71.2713V69.755C44.7861 69.7385 44.8026 69.7385 44.8026 69.7385H51.461C51.4775 69.7385 51.4775 69.755 51.4775 69.755V71.2713C51.4775 71.2878 51.461 71.2878 51.461 71.2878Z" fill="#006262"/>
<path d="M30.6287 68.2883C30.6123 68.2718 30.5958 68.2553 30.5793 68.2389C30.4804 68.0905 30.5299 67.9092 30.6617 67.8103C31.4198 67.2994 32.4252 67.2005 33.2822 67.5467C34.1887 67.9092 34.7985 68.6674 35.3918 69.409C35.5237 69.5739 35.6555 69.7387 35.7874 69.887C36.529 70.7605 37.2542 71.3373 38.0453 71.6505C38.9683 72.0131 39.9901 71.9636 40.6988 71.5186C41.4899 71.0242 41.869 70.0353 41.6053 69.2607C41.5558 69.0959 41.6382 68.9311 41.7866 68.8652C41.9514 68.8157 42.1162 68.8981 42.1821 69.0464C42.5612 70.1012 42.0667 71.3868 41.0284 72.0295C40.1384 72.5899 38.9353 72.6559 37.8146 72.2109C36.9246 71.8648 36.1005 71.2385 35.3094 70.2825C35.1776 70.1177 35.0457 69.9529 34.9139 69.7881C34.3535 69.0794 33.8096 68.4037 33.0515 68.107C32.3758 67.8433 31.5847 67.9257 30.9913 68.3213C30.8924 68.4037 30.7276 68.3872 30.6287 68.2883Z" fill="#F6921E"/>
<path d="M39.3144 72.5898C38.8199 72.5898 38.309 72.4909 37.8146 72.2931C36.9081 71.947 36.0841 71.3042 35.26 70.3318C35.1281 70.167 34.9963 70.0022 34.8644 69.8374C34.3041 69.1452 33.7767 68.4859 33.0515 68.1893C32.4087 67.9421 31.6506 68.008 31.0737 68.387C30.9089 68.4859 30.7112 68.4695 30.5628 68.3376C30.5463 68.3211 30.5299 68.2882 30.5134 68.2717C30.398 68.0904 30.4475 67.8267 30.6288 67.7113C31.4199 67.1839 32.4582 67.085 33.3482 67.4311C34.2876 67.8102 34.8974 68.5848 35.5072 69.3265C35.6391 69.4913 35.7709 69.6561 35.8863 69.8044C36.6115 70.6615 37.3366 71.2218 38.1112 71.535C39.0012 71.8811 39.9901 71.8316 40.6823 71.4031C41.424 70.9417 41.803 70.0022 41.5393 69.2606C41.4569 69.0463 41.5723 68.8156 41.7866 68.7496C41.8855 68.7167 42.0008 68.7167 42.0997 68.7661C42.1986 68.8156 42.2645 68.898 42.314 68.9969C42.7095 70.1011 42.1986 71.4361 41.1273 72.0953C40.5834 72.425 39.9571 72.5898 39.3144 72.5898ZM32.2604 67.8597C32.5571 67.8597 32.8372 67.9091 33.1174 68.0245C33.9085 68.3376 34.4524 69.0133 35.0128 69.7385C35.1446 69.9033 35.2765 70.0681 35.4083 70.233C36.1994 71.1724 37.007 71.7987 37.8805 72.1283C38.9683 72.5568 40.1384 72.4909 40.9955 71.947C41.9843 71.3207 42.4623 70.1011 42.0997 69.0793C42.0832 69.0298 42.0503 68.9804 42.0008 68.9639C41.9514 68.9474 41.9019 68.9309 41.836 68.9639C41.7371 68.9969 41.6712 69.1122 41.7042 69.2276C42.0008 70.0517 41.5888 71.09 40.7647 71.6009C40.0231 72.0624 38.9683 72.1283 38.0124 71.7492C37.2048 71.4361 36.4466 70.8592 35.705 69.9692C35.5731 69.8209 35.4413 69.6561 35.3094 69.4913C34.7326 68.7661 34.1228 68.008 33.2328 67.6619C32.4087 67.3322 31.4363 67.4311 30.6947 67.9256C30.5958 67.9915 30.5793 68.1234 30.6288 68.2058C30.6452 68.2222 30.6452 68.2222 30.6617 68.2387C30.7276 68.3046 30.843 68.3211 30.9254 68.2552C31.3374 67.9915 31.7989 67.8597 32.2604 67.8597Z" fill="#F6921E" stroke="#F6921E"/>
<path d="M55.9934 72.7387C55.9769 72.7387 55.944 72.7387 55.9275 72.7387C55.7627 72.7057 55.6638 72.5409 55.6967 72.3761C55.878 71.4861 56.5208 70.695 57.3614 70.3324C58.2678 69.9368 59.2402 70.0522 60.1796 70.1511C60.3774 70.1676 60.5917 70.2005 60.7895 70.217C61.9267 70.3159 62.8496 70.2005 63.6242 69.8544C64.5307 69.4589 65.2229 68.7007 65.4042 67.8767C65.6185 66.9702 65.19 65.9978 64.4318 65.6352C64.2835 65.5693 64.2176 65.388 64.2835 65.2232C64.3494 65.0749 64.5307 65.0089 64.6955 65.0749C65.7173 65.5528 66.2777 66.8219 65.9975 68.0085C65.7668 69.0304 64.9592 69.9204 63.8714 70.4148C62.9979 70.7939 61.9761 70.9257 60.74 70.8268C60.5258 70.8104 60.3115 70.7774 60.1137 70.7609C59.2073 70.662 58.3667 70.5631 57.6086 70.8928C56.9493 71.1729 56.4384 71.7992 56.3066 72.5079C56.2571 72.6398 56.1417 72.7387 55.9934 72.7387Z" fill="#F6921E"/>
<path d="M55.9934 72.8374C55.9604 72.8374 55.9439 72.8374 55.911 72.8209C55.6967 72.7714 55.5484 72.5572 55.5978 72.3429C55.7956 71.42 56.4549 70.5959 57.3284 70.2333C58.2513 69.8378 59.2402 69.9367 60.1961 70.052C60.3939 70.0685 60.6081 70.1015 60.8059 70.118C61.9266 70.2168 62.8331 70.1015 63.5912 69.7718C64.4647 69.3928 65.1405 68.6511 65.3218 67.86C65.5195 67.003 65.124 66.08 64.4153 65.7339C64.3164 65.6845 64.2505 65.6021 64.201 65.5032C64.1681 65.4043 64.1681 65.2889 64.2175 65.1901C64.3164 64.9923 64.5472 64.8934 64.7614 64.9923C65.8162 65.4867 66.3931 66.8052 66.1129 68.0248C65.8657 69.0796 65.0416 70.0026 63.9209 70.497C63.0309 70.8926 61.9926 71.0244 60.74 70.9091C60.5257 70.8926 60.3115 70.8596 60.1137 70.8431C59.2237 70.7442 58.3832 70.6453 57.658 70.9585C57.0317 71.2387 56.5537 71.8155 56.4054 72.4913C56.356 72.7055 56.1912 72.8374 55.9934 72.8374ZM58.8446 70.1509C58.3502 70.1509 57.8558 70.2168 57.3943 70.4146C56.5867 70.7607 55.9604 71.5189 55.7791 72.3924C55.7626 72.5077 55.8286 72.6066 55.9439 72.6396C55.9604 72.6396 55.9769 72.6396 55.9934 72.6396C56.0923 72.6396 56.1747 72.5737 56.1912 72.4748C56.3395 71.7331 56.8669 71.0903 57.5591 70.7937C58.3337 70.4641 59.1908 70.563 60.1137 70.6618C60.328 70.6783 60.5257 70.7113 60.74 70.7278C61.9596 70.8267 62.9814 70.6948 63.8385 70.3322C64.9097 69.8707 65.6844 68.9972 65.9151 67.9919C66.1788 66.8547 65.6514 65.6351 64.679 65.1736C64.5801 65.1241 64.4483 65.1736 64.3988 65.2725C64.3823 65.3219 64.3659 65.3713 64.3988 65.4373C64.4153 65.4867 64.4483 65.5362 64.4977 65.5527C65.2888 65.9317 65.7338 66.9536 65.5196 67.893C65.3218 68.75 64.6131 69.5246 63.6736 69.9367C62.8825 70.2828 61.9431 70.3981 60.7894 70.2992C60.5917 70.2828 60.3774 70.2663 60.1796 70.2333C59.7181 70.2004 59.2896 70.1509 58.8446 70.1509Z" fill="#F6921E" stroke="#F6921E"/>
<path d="M34.7326 49.253C34.7326 49.253 34.7326 49.2695 34.7326 49.253C34.8809 49.4178 34.8809 49.665 34.7326 49.8133C34.5843 49.9617 34.4524 50.143 34.3041 50.3407C33.9745 50.7857 33.6119 51.2967 32.9691 51.3626C32.2934 51.445 31.766 50.9835 31.3375 50.6209L31.2715 50.5715C29.9695 49.4508 28.3049 48.7915 26.6073 48.6761C26.3931 48.6597 26.2283 48.4784 26.2448 48.2641C26.2612 48.0499 26.4425 47.885 26.6568 47.9015C28.5357 48.0169 30.3486 48.7585 31.7825 49.9782L31.8484 50.0276C32.1945 50.3243 32.5406 50.6209 32.8867 50.588C33.1998 50.555 33.4306 50.2419 33.6943 49.8793C33.8591 49.665 34.0074 49.4343 34.2217 49.253C34.3371 49.1047 34.5843 49.1047 34.7326 49.253Z" fill="#F6921E"/>
<path d="M32.7878 51.4772C32.1451 51.4772 31.6506 51.0487 31.2551 50.7026L31.1892 50.6532C29.9036 49.5489 28.272 48.8897 26.5744 48.7743C26.3107 48.7578 26.0964 48.5271 26.1129 48.2634C26.1294 47.9997 26.3601 47.7854 26.6238 47.8019C28.5192 47.9173 30.3651 48.6754 31.799 49.9115L31.8649 49.961C32.1945 50.2412 32.5241 50.5378 32.8208 50.4884C33.0845 50.4554 33.3152 50.1587 33.5624 49.8126C33.7273 49.5984 33.8921 49.3676 34.0898 49.1699C34.2876 48.9886 34.5843 48.9886 34.7656 49.1863L34.7821 49.2028C34.8645 49.3017 34.9139 49.4171 34.9139 49.5489C34.9139 49.6808 34.8645 49.7962 34.7656 49.895C34.6172 50.0269 34.4854 50.2082 34.3535 50.406C34.0239 50.8674 33.6284 51.3948 32.9362 51.4772C32.9032 51.4772 32.8538 51.4772 32.7878 51.4772ZM26.6238 48.0162C26.4755 48.0162 26.3437 48.1315 26.3437 48.2799C26.3272 48.4447 26.459 48.5765 26.6074 48.593C28.3379 48.7084 30.019 49.3841 31.3375 50.5048L31.4034 50.5543C31.8154 50.9004 32.3264 51.3454 32.9526 51.263C33.5624 51.1971 33.9086 50.7026 34.2217 50.2741C34.37 50.0763 34.5019 49.8786 34.6667 49.7302C34.7161 49.6808 34.7491 49.5984 34.7491 49.5324C34.7491 49.45 34.7161 49.3841 34.6667 49.3347L34.7326 49.2523L34.6667 49.3182C34.5513 49.2028 34.3865 49.2028 34.2711 49.3182C34.0734 49.4995 33.9086 49.7302 33.7602 49.928C33.48 50.3071 33.2328 50.6367 32.8867 50.6861C32.5076 50.7356 32.1451 50.406 31.7825 50.1093L31.7165 50.0599C30.2992 48.8567 28.5027 48.1151 26.6568 47.9997C26.6238 48.0162 26.6238 48.0162 26.6238 48.0162Z" fill="#F6921E" stroke="#F6921E"/>
</svg>
