<svg width="48" height="48" viewBox="0 0 48 48" fill="none" xmlns="http://www.w3.org/2000/svg">
<path d="M46.5128 30.1388L32.3566 7.45129C30.5442 4.54651 27.42 2.8125 24 2.8125C20.58 2.8125 17.4558 4.54651 15.6434 7.45129L1.48718 30.1388C0.51416 31.6981 0 33.498 0 35.3438C0 40.7717 4.41577 45.1875 9.84375 45.1875H38.1562C43.5842 45.1875 48 40.7717 48 35.3438C48 33.498 47.4858 31.6981 46.5128 30.1388ZM38.1562 42.375H9.84375C5.96667 42.375 2.8125 39.2208 2.8125 35.3438C2.8125 34.025 3.17944 32.74 3.87341 31.6278L18.0297 8.94031C19.325 6.86426 21.5566 5.625 24 5.625C26.4434 5.625 28.675 6.86426 29.9703 8.94031L44.1266 31.6278C44.8206 32.74 45.1875 34.025 45.1875 35.3438C45.1875 39.2208 42.0333 42.375 38.1562 42.375Z" fill="#D22D25"/>
<path d="M27.5845 10.4293C26.8063 9.18201 25.4663 8.4375 24 8.4375C22.5337 8.4375 21.1937 9.18201 20.4155 10.429L6.25964 33.1165C5.8385 33.791 5.625 34.5406 5.625 35.3438C5.625 37.6699 7.51758 39.5625 9.84375 39.5625H38.1562C40.4824 39.5625 42.375 37.6699 42.375 35.3438C42.375 34.5406 42.1615 33.7914 41.7407 33.1165L27.5845 10.4293ZM38.1562 36.75H9.84375C9.06848 36.75 8.4375 36.119 8.4375 35.3438C8.4375 35.0713 8.50562 34.83 8.64551 34.6051L22.8018 11.918C23.0629 11.4998 23.5107 11.25 24 11.25C24.4893 11.25 24.9375 11.4998 25.1982 11.9183L39.3545 34.6055C39.4944 34.83 39.5625 35.0713 39.5625 35.3438C39.5625 36.119 38.9315 36.75 38.1562 36.75Z" fill="#D22D25"/>
<path d="M22.5938 18.2812H25.4062V28.2188H22.5938V18.2812Z" fill="#D22D25"/>
<path d="M22.5938 31.0312H25.4062V33.8438H22.5938V31.0312Z" fill="#D22D25"/>
</svg>
